<svg version="1.1" viewBox="0.0 0.0 600.0 371.0" fill="none" stroke="none" stroke-linecap="square" stroke-miterlimit="10" width="600" height="371" xmlns:xlink="http://www.w3.org/1999/xlink" xmlns="http://www.w3.org/2000/svg"><path fill="#ffffff" d="M0 0L600.0 0L600.0 371.0L0 371.0L0 0Z" fill-rule="nonzero"/><path fill="#2e5dab" d="M444.76666 174.17416C444.76666 191.24323 438.60727 208.03574 426.86 222.99348L426.86 201.27847C438.60727 186.32074 444.76666 169.52823 444.76666 152.45917Z" fill-rule="nonzero"/><path fill="#4285f4" d="M300.0 51.1225C351.17892 51.1225 398.55457 70.038315 424.60675 100.8746C450.65894 131.71089 451.51562 169.88458 426.86 201.27847L300.0 152.45917Z" fill-rule="nonzero"/><path fill="#a42f25" d="M426.86 222.99348C401.42105 255.38478 352.8049 275.51083 300.0 275.51083L300.0 253.79584C352.8049 253.79584 401.42105 233.66978 426.86 201.27847Z" fill-rule="nonzero"/><path fill="#ea4335" d="M426.86 201.27847C401.42105 233.66978 352.8049 253.79584 300.0 253.79584L300.0 152.45917Z" fill-rule="nonzero"/><path fill="#5677ad" d="M286.67697 128.90405L187.57736 55.032803L187.57736 76.7478L286.67697 150.61905Z" fill-rule="nonzero"/><path fill="#7baaf7" d="M187.57736 55.032803C214.41869 37.38883 249.856 27.567387 286.67697 27.567387L286.67697 128.90405Z" fill-rule="nonzero"/><path fill="#46bdc6" d="M162.31873 121.14442C169.85391 104.91077 183.12495 90.27249 200.90039 78.58791L300.0 152.45917Z" fill-rule="nonzero"/><path fill="#b34c01" d="M155.23334 174.17416L155.23334 152.45917Z" fill-rule="nonzero"/><path fill="#ff6d01" d="M155.23334 152.45917C155.23334 141.82535 157.62439 131.25778 162.31873 121.14442L300.0 152.45917Z" fill-rule="nonzero"/><path fill="#24763a" d="M194.46964 243.54388C169.26396 224.75496 155.23334 199.94884 155.23334 174.17416L155.23334 152.45917C155.23334 178.23384 169.26396 203.03996 194.46964 221.82889Z" fill-rule="nonzero"/><path fill="#34a853" d="M194.46964 221.82889C169.26396 203.03996 155.23334 178.23384 155.23334 152.45917L300.0 152.45917Z" fill-rule="nonzero"/><path fill="#b08403" d="M300.0 275.51083C260.027 275.51083 221.83302 263.94122 194.46964 243.54388L194.46964 221.82889C221.83302 242.22623 260.027 253.79584 300.0 253.79584Z" fill-rule="nonzero"/><path fill="#fbbc04" d="M300.0 253.79584C260.027 253.79584 221.83302 242.22623 194.46964 221.82889L300.0 152.45917Z" fill-rule="nonzero"/><path fill="#000000" d="M365.28574 119.75785L366.5045 119.585976Q366.72324 120.63285 367.22324 121.1016Q367.73886 121.554726 368.47324 121.554726Q369.34824 121.554726 369.942 120.960976Q370.53574 120.3516 370.53574 119.460976Q370.53574 118.617226 369.97324 118.07035Q369.42636 117.523476 368.5826 117.523476Q368.22324 117.523476 367.7076 117.648476L367.84824 116.57035Q367.97324 116.585976 368.03574 116.585976Q368.8326 116.585976 369.4576 116.179726Q370.0826 115.773476 370.0826 114.9141Q370.0826 114.242226 369.6295 113.804726Q369.17636 113.3516 368.442 113.3516Q367.72324 113.3516 367.23886 113.804726Q366.7701 114.242226 366.6295 115.148476L365.41074 114.929726Q365.6295 113.69535 366.42636 113.023476Q367.22324 112.335976 368.41074 112.335976Q369.23886 112.335976 369.92636 112.69535Q370.61386 113.0391 370.97324 113.648476Q371.34824 114.25785 371.34824 114.94535Q371.34824 115.585976 371.0045 116.117226Q370.66074 116.648476 369.97324 116.9766Q370.86386 117.179726 371.34824 117.82035Q371.84824 118.460976 371.84824 119.44535Q371.84824 120.75785 370.8795 121.6641Q369.92636 122.57035 368.47324 122.57035Q367.1451 122.57035 366.2701 121.7891Q365.41074 121.00785 365.28574 119.75785ZM373.28574 119.75785L374.5045 119.585976Q374.72324 120.63285 375.22324 121.1016Q375.73886 121.554726 376.47324 121.554726Q377.34824 121.554726 377.942 120.960976Q378.53574 120.3516 378.53574 119.460976Q378.53574 118.617226 377.97324 118.07035Q377.42636 117.523476 376.5826 117.523476Q376.22324 117.523476 375.7076 117.648476L375.84824 116.57035Q375.97324 116.585976 376.03574 116.585976Q376.8326 116.585976 377.4576 116.179726Q378.0826 115.773476 378.0826 114.9141Q378.0826 114.242226 377.6295 113.804726Q377.17636 113.3516 376.442 113.3516Q375.72324 113.3516 375.23886 113.804726Q374.7701 114.242226 374.6295 115.148476L373.41074 114.929726Q373.6295 113.69535 374.42636 113.023476Q375.22324 112.335976 376.41074 112.335976Q377.23886 112.335976 377.92636 112.69535Q378.61386 113.0391 378.97324 113.648476Q379.34824 114.25785 379.34824 114.94535Q379.34824 115.585976 379.0045 116.117226Q378.66074 116.648476 377.97324 116.9766Q378.86386 117.179726 379.34824 117.82035Q379.84824 118.460976 379.84824 119.44535Q379.84824 120.75785 378.8795 121.6641Q377.92636 122.57035 376.47324 122.57035Q375.1451 122.57035 374.2701 121.7891Q373.41074 121.00785 373.28574 119.75785ZM381.9576 122.398476L381.9576 120.992226L383.36386 120.992226L383.36386 122.398476L381.9576 122.398476ZM385.2701 117.460976Q385.2701 115.679726 385.6295 114.6016Q386.0045 113.50785 386.72324 112.929726Q387.442 112.335976 388.53574 112.335976Q389.34824 112.335976 389.9576 112.6641Q390.567 112.992226 390.9576 113.6016Q391.36386 114.210976 391.5826 115.085976Q391.80136 115.960976 391.80136 117.460976Q391.80136 119.2266 391.442 120.304726Q391.0826 121.38285 390.36386 121.9766Q389.6451 122.57035 388.53574 122.57035Q387.09824 122.57035 386.2701 121.523476Q385.2701 120.273476 385.2701 117.460976ZM386.53574 117.460976Q386.53574 119.929726 387.11386 120.742226Q387.692 121.554726 388.53574 121.554726Q389.3951 121.554726 389.97324 120.742226Q390.55136 119.9141 390.55136 117.460976Q390.55136 114.9766 389.97324 114.1641Q389.3951 113.3516 388.5201 113.3516Q387.67636 113.3516 387.17636 114.07035Q386.53574 114.992226 386.53574 117.460976ZM393.5045 114.7891Q393.5045 113.710976 394.03574 112.960976Q394.5826 112.210976 395.61386 112.210976Q396.55136 112.210976 397.16074 112.88285Q397.78574 113.554726 397.78574 114.8516Q397.78574 116.13285 397.16074 116.82035Q396.53574 117.50785 395.6295 117.50785Q394.72324 117.50785 394.11386 116.835976Q393.5045 116.148476 393.5045 114.7891ZM395.6451 113.054726Q395.192 113.054726 394.8795 113.460976Q394.5826 113.8516 394.5826 114.898476Q394.5826 115.867226 394.8795 116.25785Q395.192 116.648476 395.6451 116.648476Q396.11386 116.648476 396.41074 116.25785Q396.72324 115.867226 396.72324 114.804726Q396.72324 113.835976 396.41074 113.44535Q396.09824 113.054726 395.6451 113.054726ZM395.6451 122.773476L401.1295 112.210976L402.1295 112.210976L396.67636 122.773476L395.6451 122.773476ZM399.98886 120.0391Q399.98886 118.960976 400.5201 118.2266Q401.067 117.4766 402.09824 117.4766Q403.03574 117.4766 403.66074 118.148476Q404.28574 118.82035 404.28574 120.117226Q404.28574 121.398476 403.66074 122.085976Q403.03574 122.773476 402.09824 122.773476Q401.192 122.773476 400.5826 122.1016Q399.98886 121.4141 399.98886 120.0391ZM402.1295 118.32035Q401.66074 118.32035 401.36386 118.7266Q401.067 119.117226 401.067 120.1641Q401.067 121.13285 401.36386 121.523476Q401.67636 121.9141 402.1295 121.9141Q402.59824 121.9141 402.8951 121.523476Q403.2076 121.13285 403.2076 120.07035Q403.2076 119.1016 402.8951 118.710976Q402.59824 118.32035 402.1295 118.32035Z" fill-rule="nonzero"/><path fill="#000000" d="M335.5953 217.08662L334.36093 217.08662L334.36093 209.24287Q333.92343 209.66475 333.18906 210.10225Q332.4703 210.52412 331.9078 210.72725L331.9078 209.53975Q332.93906 209.05537 333.70468 208.36787Q334.48593 207.68037 334.79843 207.02412L335.5953 207.02412L335.5953 217.08662ZM339.0328 208.3835L339.0328 207.196L345.5328 207.196L345.5328 208.14912Q344.56406 209.16475 343.62656 210.85225Q342.68906 212.53975 342.17343 214.33662Q341.81406 215.58662 341.70468 217.08662L340.43906 217.08662Q340.45468 215.89912 340.89218 214.22725Q341.3453 212.55537 342.17343 211.0085Q343.01718 209.446 343.95468 208.3835L339.0328 208.3835ZM347.64218 217.08662L347.64218 215.68037L349.04843 215.68037L349.04843 217.08662L347.64218 217.08662ZM350.95468 212.14912Q350.95468 210.36787 351.31406 209.28975Q351.68906 208.196 352.4078 207.61787Q353.12656 207.02412 354.2203 207.02412Q355.0328 207.02412 355.64218 207.35225Q356.25156 207.68037 356.64218 208.28975Q357.04843 208.89912 357.26718 209.77412Q357.48593 210.64912 357.48593 212.14912Q357.48593 213.91475 357.12656 214.99287Q356.76718 216.071 356.04843 216.66475Q355.32968 217.2585 354.2203 217.2585Q352.7828 217.2585 351.95468 216.21162Q350.95468 214.96162 350.95468 212.14912ZM352.2203 212.14912Q352.2203 214.61787 352.79843 215.43037Q353.37656 216.24287 354.2203 216.24287Q355.07968 216.24287 355.6578 215.43037Q356.23593 214.60225 356.23593 212.14912Q356.23593 209.66475 355.6578 208.85225Q355.07968 208.03975 354.20468 208.03975Q353.36093 208.03975 352.86093 208.7585Q352.2203 209.68037 352.2203 212.14912ZM359.18906 209.47725Q359.18906 208.39912 359.7203 207.64912Q360.26718 206.89912 361.29843 206.89912Q362.23593 206.89912 362.8453 207.571Q363.4703 208.24287 363.4703 209.53975Q363.4703 210.821 362.8453 211.5085Q362.2203 212.196 361.31406 212.196Q360.4078 212.196 359.79843 211.52412Q359.18906 210.83662 359.18906 209.47725ZM361.32968 207.74287Q360.87656 207.74287 360.56406 208.14912Q360.26718 208.53975 360.26718 209.58662Q360.26718 210.55537 360.56406 210.946Q360.87656 211.33662 361.32968 211.33662Q361.79843 211.33662 362.0953 210.946Q362.4078 210.55537 362.4078 209.49287Q362.4078 208.52412 362.0953 208.1335Q361.7828 207.74287 361.32968 207.74287ZM361.32968 217.46162L366.81406 206.89912L367.81406 206.89912L362.36093 217.46162L361.32968 217.46162ZM365.67343 214.72725Q365.67343 213.64912 366.20468 212.91475Q366.75156 212.16475 367.7828 212.16475Q368.7203 212.16475 369.3453 212.83662Q369.9703 213.5085 369.9703 214.80537Q369.9703 216.08662 369.3453 216.77412Q368.7203 217.46162 367.7828 217.46162Q366.87656 217.46162 366.26718 216.78975Q365.67343 216.10225 365.67343 214.72725ZM367.81406 213.0085Q367.3453 213.0085 367.04843 213.41475Q366.75156 213.80537 366.75156 214.85225Q366.75156 215.821 367.04843 216.21162Q367.36093 216.60225 367.81406 216.60225Q368.2828 216.60225 368.57968 216.21162Q368.89218 215.821 368.89218 214.7585Q368.89218 213.78975 368.57968 213.39912Q368.2828 213.0085 367.81406 213.0085Z" fill-rule="nonzero"/><path fill="#000000" d="M245.35777 221.93846L244.1234 221.93846L244.1234 214.09471Q243.6859 214.51659 242.95152 214.95409Q242.23277 215.37596 241.67027 215.57909L241.67027 214.39159Q242.70152 213.90721 243.46715 213.21971Q244.2484 212.53221 244.5609 211.87596L245.35777 211.87596L245.35777 221.93846ZM248.73277 219.29784L249.95152 219.12596Q250.17027 220.17284 250.67027 220.64159Q251.1859 221.09471 251.92027 221.09471Q252.79527 221.09471 253.38902 220.50096Q253.98277 219.89159 253.98277 219.00096Q253.98277 218.15721 253.42027 217.61034Q252.8734 217.06346 252.02965 217.06346Q251.67027 217.06346 251.15465 217.18846L251.29527 216.11034Q251.42027 216.12596 251.48277 216.12596Q252.27965 216.12596 252.90465 215.71971Q253.52965 215.31346 253.52965 214.45409Q253.52965 213.78221 253.07652 213.34471Q252.6234 212.89159 251.88902 212.89159Q251.17027 212.89159 250.6859 213.34471Q250.21715 213.78221 250.07652 214.68846L248.85777 214.46971Q249.07652 213.23534 249.8734 212.56346Q250.67027 211.87596 251.85777 211.87596Q252.6859 211.87596 253.3734 212.23534Q254.0609 212.57909 254.42027 213.18846Q254.79527 213.79784 254.79527 214.48534Q254.79527 215.12596 254.45152 215.65721Q254.10777 216.18846 253.42027 216.51659Q254.3109 216.71971 254.79527 217.36034Q255.29527 218.00096 255.29527 218.98534Q255.29527 220.29784 254.32652 221.20409Q253.3734 222.11034 251.92027 222.11034Q250.59215 222.11034 249.71715 221.32909Q248.85777 220.54784 248.73277 219.29784ZM257.40466 221.93846L257.40466 220.53221L258.8109 220.53221L258.8109 221.93846L257.40466 221.93846ZM260.71716 217.00096Q260.71716 215.21971 261.07654 214.14159Q261.45154 213.04784 262.1703 212.46971Q262.88904 211.87596 263.9828 211.87596Q264.7953 211.87596 265.40466 212.20409Q266.01404 212.53221 266.40466 213.14159Q266.8109 213.75096 267.02966 214.62596Q267.2484 215.50096 267.2484 217.00096Q267.2484 218.76659 266.88904 219.84471Q266.52966 220.92284 265.8109 221.51659Q265.09216 222.11034 263.9828 222.11034Q262.5453 222.11034 261.71716 221.06346Q260.71716 219.81346 260.71716 217.00096ZM261.9828 217.00096Q261.9828 219.46971 262.5609 220.28221Q263.13904 221.09471 263.9828 221.09471Q264.84216 221.09471 265.4203 220.28221Q265.9984 219.45409 265.9984 217.00096Q265.9984 214.51659 265.4203 213.70409Q264.84216 212.89159 263.96716 212.89159Q263.1234 212.89159 262.6234 213.61034Q261.9828 214.53221 261.9828 217.00096ZM268.95154 214.32909Q268.95154 213.25096 269.4828 212.50096Q270.02966 211.75096 271.0609 211.75096Q271.9984 211.75096 272.6078 212.42284Q273.2328 213.09471 273.2328 214.39159Q273.2328 215.67284 272.6078 216.36034Q271.9828 217.04784 271.07654 217.04784Q270.1703 217.04784 269.5609 216.37596Q268.95154 215.68846 268.95154 214.32909ZM271.09216 212.59471Q270.63904 212.59471 270.32654 213.00096Q270.02966 213.39159 270.02966 214.43846Q270.02966 215.40721 270.32654 215.79784Q270.63904 216.18846 271.09216 216.18846Q271.5609 216.18846 271.8578 215.79784Q272.1703 215.40721 272.1703 214.34471Q272.1703 213.37596 271.8578 212.98534Q271.5453 212.59471 271.09216 212.59471ZM271.09216 222.31346L276.57654 211.75096L277.57654 211.75096L272.1234 222.31346L271.09216 222.31346ZM275.4359 219.57909Q275.4359 218.50096 275.96716 217.76659Q276.51404 217.01659 277.5453 217.01659Q278.4828 217.01659 279.1078 217.68846Q279.7328 218.36034 279.7328 219.65721Q279.7328 220.93846 279.1078 221.62596Q278.4828 222.31346 277.5453 222.31346Q276.63904 222.31346 276.02966 221.64159Q275.4359 220.95409 275.4359 219.57909ZM277.57654 217.86034Q277.1078 217.86034 276.8109 218.26659Q276.51404 218.65721 276.51404 219.70409Q276.51404 220.67284 276.8109 221.06346Q277.1234 221.45409 277.57654 221.45409Q278.0453 221.45409 278.34216 221.06346Q278.65466 220.67284 278.65466 219.61034Q278.65466 218.64159 278.34216 218.25096Q278.0453 217.86034 277.57654 217.86034Z" fill-rule="nonzero"/><path fill="#000000" d="M192.36218 183.19434L191.1278 183.19434L191.1278 175.35059Q190.6903 175.77246 189.95593 176.20996Q189.23718 176.63184 188.67468 176.83496L188.67468 175.64746Q189.70593 175.16309 190.47156 174.47559Q191.2528 173.78809 191.5653 173.13184L192.36218 173.13184L192.36218 183.19434ZM202.1903 182.00684L202.1903 183.19434L195.5653 183.19434Q195.54968 182.75684 195.70593 182.33496Q195.97156 181.66309 196.51843 181.00684Q197.08093 180.35059 198.1278 179.49121Q199.76843 178.14746 200.33093 177.36621Q200.90906 176.58496 200.90906 175.88184Q200.90906 175.14746 200.3778 174.64746Q199.86218 174.14746 199.03406 174.14746Q198.14343 174.14746 197.59656 174.67871Q197.0653 175.20996 197.0653 176.16309L195.79968 176.02246Q195.92468 174.61621 196.76843 173.88184Q197.6278 173.13184 199.04968 173.13184Q200.5028 173.13184 201.33093 173.92871Q202.17468 174.72559 202.17468 175.91309Q202.17468 176.52246 201.92468 177.10059Q201.6903 177.67871 201.11218 178.31934Q200.54968 178.95996 199.22156 180.08496Q198.11218 181.00684 197.79968 181.35059Q197.48718 181.67871 197.28406 182.00684L202.1903 182.00684ZM204.40906 183.19434L204.40906 181.78809L205.8153 181.78809L205.8153 183.19434L204.40906 183.19434ZM207.72156 178.25684Q207.72156 176.47559 208.08093 175.39746Q208.45593 174.30371 209.17468 173.72559Q209.89343 173.13184 210.98718 173.13184Q211.79968 173.13184 212.40906 173.45996Q213.01843 173.78809 213.40906 174.39746Q213.8153 175.00684 214.03406 175.88184Q214.2528 176.75684 214.2528 178.25684Q214.2528 180.02246 213.89343 181.10059Q213.53406 182.17871 212.8153 182.77246Q212.09656 183.36621 210.98718 183.36621Q209.54968 183.36621 208.72156 182.31934Q207.72156 181.06934 207.72156 178.25684ZM208.98718 178.25684Q208.98718 180.72559 209.5653 181.53809Q210.14343 182.35059 210.98718 182.35059Q211.84656 182.35059 212.42468 181.53809Q213.0028 180.70996 213.0028 178.25684Q213.0028 175.77246 212.42468 174.95996Q211.84656 174.14746 210.97156 174.14746Q210.1278 174.14746 209.6278 174.86621Q208.98718 175.78809 208.98718 178.25684ZM215.95593 175.58496Q215.95593 174.50684 216.48718 173.75684Q217.03406 173.00684 218.0653 173.00684Q219.0028 173.00684 219.61218 173.67871Q220.23718 174.35059 220.23718 175.64746Q220.23718 176.92871 219.61218 177.61621Q218.98718 178.30371 218.08093 178.30371Q217.17468 178.30371 216.5653 177.63184Q215.95593 176.94434 215.95593 175.58496ZM218.09656 173.85059Q217.64343 173.85059 217.33093 174.25684Q217.03406 174.64746 217.03406 175.69434Q217.03406 176.66309 217.33093 177.05371Q217.64343 177.44434 218.09656 177.44434Q218.5653 177.44434 218.86218 177.05371Q219.17468 176.66309 219.17468 175.60059Q219.17468 174.63184 218.86218 174.24121Q218.54968 173.85059 218.09656 173.85059ZM218.09656 183.56934L223.58093 173.00684L224.58093 173.00684L219.1278 183.56934L218.09656 183.56934ZM222.4403 180.83496Q222.4403 179.75684 222.97156 179.02246Q223.51843 178.27246 224.54968 178.27246Q225.48718 178.27246 226.11218 178.94434Q226.73718 179.61621 226.73718 180.91309Q226.73718 182.19434 226.11218 182.88184Q225.48718 183.56934 224.54968 183.56934Q223.64343 183.56934 223.03406 182.89746Q222.4403 182.20996 222.4403 180.83496ZM224.58093 179.11621Q224.11218 179.11621 223.8153 179.52246Q223.51843 179.91309 223.51843 180.95996Q223.51843 181.92871 223.8153 182.31934Q224.1278 182.70996 224.58093 182.70996Q225.04968 182.70996 225.34656 182.31934Q225.65906 181.92871 225.65906 180.86621Q225.65906 179.89746 225.34656 179.50684Q225.04968 179.11621 224.58093 179.11621Z" fill-rule="nonzero"/><path fill="#000000" d="M178.78467 143.10493L180.08154 142.99556Q180.22217 143.93306 180.7378 144.41743Q181.26904 144.88618 182.00342 144.88618Q182.89404 144.88618 183.50342 144.21431Q184.12842 143.54243 184.12842 142.44868Q184.12842 141.38618 183.53467 140.77681Q182.94092 140.16743 181.9878 140.16743Q181.39404 140.16743 180.90967 140.44868Q180.44092 140.71431 180.15967 141.13618L179.00342 140.99556L179.97217 135.83931L184.95654 135.83931L184.95654 137.02681L180.95654 137.02681L180.4253 139.71431Q181.33154 139.08931 182.31592 139.08931Q183.62842 139.08931 184.51904 139.99556Q185.4253 140.90181 185.4253 142.33931Q185.4253 143.69868 184.64404 144.68306Q183.6753 145.90181 182.00342 145.90181Q180.64404 145.90181 179.76904 145.13618Q178.90967 144.37056 178.78467 143.10493ZM187.47217 145.72993L187.47217 144.32368L188.87842 144.32368L188.87842 145.72993L187.47217 145.72993ZM190.78467 140.79243Q190.78467 139.01118 191.14404 137.93306Q191.51904 136.83931 192.2378 136.26118Q192.95654 135.66743 194.0503 135.66743Q194.8628 135.66743 195.47217 135.99556Q196.08154 136.32368 196.47217 136.93306Q196.87842 137.54243 197.09717 138.41743Q197.31592 139.29243 197.31592 140.79243Q197.31592 142.55806 196.95654 143.63618Q196.59717 144.71431 195.87842 145.30806Q195.15967 145.90181 194.0503 145.90181Q192.6128 145.90181 191.78467 144.85493Q190.78467 143.60493 190.78467 140.79243ZM192.0503 140.79243Q192.0503 143.26118 192.62842 144.07368Q193.20654 144.88618 194.0503 144.88618Q194.90967 144.88618 195.4878 144.07368Q196.06592 143.24556 196.06592 140.79243Q196.06592 138.30806 195.4878 137.49556Q194.90967 136.68306 194.03467 136.68306Q193.19092 136.68306 192.69092 137.40181Q192.0503 138.32368 192.0503 140.79243ZM199.01904 138.12056Q199.01904 137.04243 199.5503 136.29243Q200.09717 135.54243 201.12842 135.54243Q202.06592 135.54243 202.6753 136.21431Q203.3003 136.88618 203.3003 138.18306Q203.3003 139.46431 202.6753 140.15181Q202.0503 140.83931 201.14404 140.83931Q200.2378 140.83931 199.62842 140.16743Q199.01904 139.47993 199.01904 138.12056ZM201.15967 136.38618Q200.70654 136.38618 200.39404 136.79243Q200.09717 137.18306 200.09717 138.22993Q200.09717 139.19868 200.39404 139.58931Q200.70654 139.97993 201.15967 139.97993Q201.62842 139.97993 201.9253 139.58931Q202.2378 139.19868 202.2378 138.13618Q202.2378 137.16743 201.9253 136.77681Q201.6128 136.38618 201.15967 136.38618ZM201.15967 146.10493L206.64404 135.54243L207.64404 135.54243L202.19092 146.10493L201.15967 146.10493ZM205.50342 143.37056Q205.50342 142.29243 206.03467 141.55806Q206.58154 140.80806 207.6128 140.80806Q208.5503 140.80806 209.1753 141.47993Q209.8003 142.15181 209.8003 143.44868Q209.8003 144.72993 209.1753 145.41743Q208.5503 146.10493 207.6128 146.10493Q206.70654 146.10493 206.09717 145.43306Q205.50342 144.74556 205.50342 143.37056ZM207.64404 141.65181Q207.1753 141.65181 206.87842 142.05806Q206.58154 142.44868 206.58154 143.49556Q206.58154 144.46431 206.87842 144.85493Q207.19092 145.24556 207.64404 145.24556Q208.1128 145.24556 208.40967 144.85493Q208.72217 144.46431 208.72217 143.40181Q208.72217 142.43306 208.40967 142.04243Q208.1128 141.65181 207.64404 141.65181Z" fill-rule="nonzero"/><path fill="#000000" d="M200.8309 113.97846Q200.06528 113.69721 199.69028 113.18159Q199.3309 112.66596 199.3309 111.93159Q199.3309 110.83784 200.11215 110.10346Q200.90903 109.35346 202.2059 109.35346Q203.5184 109.35346 204.31528 110.11909Q205.12778 110.88471 205.12778 111.97846Q205.12778 112.66596 204.75278 113.18159Q204.3934 113.69721 203.6434 113.97846Q204.56528 114.27534 205.04965 114.94721Q205.53403 115.61909 205.53403 116.55659Q205.53403 117.83784 204.62778 118.71284Q203.72153 119.58784 202.23715 119.58784Q200.75278 119.58784 199.8309 118.71284Q198.92465 117.82221 198.92465 116.50971Q198.92465 115.54096 199.42465 114.88471Q199.92465 114.21284 200.8309 113.97846ZM200.59653 111.90034Q200.59653 112.60346 201.04965 113.05659Q201.50278 113.50971 202.23715 113.50971Q202.9559 113.50971 203.40903 113.07221Q203.86215 112.61909 203.86215 111.96284Q203.86215 111.29096 203.3934 110.83784Q202.92465 110.36909 202.22153 110.36909Q201.5184 110.36909 201.04965 110.82221Q200.59653 111.25971 200.59653 111.90034ZM200.19028 116.52534Q200.19028 117.05659 200.44028 117.55659Q200.69028 118.04096 201.17465 118.30659Q201.67465 118.57221 202.25278 118.57221Q203.12778 118.57221 203.69028 118.00971Q204.2684 117.44721 204.2684 116.57221Q204.2684 115.68159 203.67465 115.10346Q203.09653 114.50971 202.2059 114.50971Q201.3309 114.50971 200.75278 115.08784Q200.19028 115.66596 200.19028 116.52534ZM207.62778 119.41596L207.62778 118.00971L209.03403 118.00971L209.03403 119.41596L207.62778 119.41596ZM210.94028 114.47846Q210.94028 112.69721 211.29965 111.61909Q211.67465 110.52534 212.3934 109.94721Q213.11215 109.35346 214.2059 109.35346Q215.0184 109.35346 215.62778 109.68159Q216.23715 110.00971 216.62778 110.61909Q217.03403 111.22846 217.25278 112.10346Q217.47153 112.97846 217.47153 114.47846Q217.47153 116.24409 217.11215 117.32221Q216.75278 118.40034 216.03403 118.99409Q215.31528 119.58784 214.2059 119.58784Q212.7684 119.58784 211.94028 118.54096Q210.94028 117.29096 210.94028 114.47846ZM212.2059 114.47846Q212.2059 116.94721 212.78403 117.75971Q213.36215 118.57221 214.2059 118.57221Q215.06528 118.57221 215.6434 117.75971Q216.22153 116.93159 216.22153 114.47846Q216.22153 111.99409 215.6434 111.18159Q215.06528 110.36909 214.19028 110.36909Q213.34653 110.36909 212.84653 111.08784Q212.2059 112.00971 212.2059 114.47846ZM219.17465 111.80659Q219.17465 110.72846 219.7059 109.97846Q220.25278 109.22846 221.28403 109.22846Q222.22153 109.22846 222.8309 109.90034Q223.4559 110.57221 223.4559 111.86909Q223.4559 113.15034 222.8309 113.83784Q222.2059 114.52534 221.29965 114.52534Q220.3934 114.52534 219.78403 113.85346Q219.17465 113.16596 219.17465 111.80659ZM221.31528 110.07221Q220.86215 110.07221 220.54965 110.47846Q220.25278 110.86909 220.25278 111.91596Q220.25278 112.88471 220.54965 113.27534Q220.86215 113.66596 221.31528 113.66596Q221.78403 113.66596 222.0809 113.27534Q222.3934 112.88471 222.3934 111.82221Q222.3934 110.85346 222.0809 110.46284Q221.7684 110.07221 221.31528 110.07221ZM221.31528 119.79096L226.79965 109.22846L227.79965 109.22846L222.34653 119.79096L221.31528 119.79096ZM225.65903 117.05659Q225.65903 115.97846 226.19028 115.24409Q226.73715 114.49409 227.7684 114.49409Q228.7059 114.49409 229.3309 115.16596Q229.9559 115.83784 229.9559 117.13471Q229.9559 118.41596 229.3309 119.10346Q228.7059 119.79096 227.7684 119.79096Q226.86215 119.79096 226.25278 119.11909Q225.65903 118.43159 225.65903 117.05659ZM227.79965 115.33784Q227.3309 115.33784 227.03403 115.74409Q226.73715 116.13471 226.73715 117.18159Q226.73715 118.15034 227.03403 118.54096Q227.34653 118.93159 227.79965 118.93159Q228.2684 118.93159 228.56528 118.54096Q228.87778 118.15034 228.87778 117.08784Q228.87778 116.11909 228.56528 115.72846Q228.2684 115.33784 227.79965 115.33784Z" fill-rule="nonzero"/><path fill="#000000" d="M234.7891 68.29963L233.55472 68.29963L233.55472 60.45588Q233.11722 60.877754 232.38284 61.315254Q231.6641 61.73713 231.1016 61.940254L231.1016 60.752754Q232.13284 60.26838 232.89847 59.58088Q233.67972 58.89338 233.99222 58.23713L234.7891 58.23713L234.7891 68.29963ZM244.61722 67.11213L244.61722 68.29963L237.99222 68.29963Q237.9766 67.86213 238.13284 67.440254Q238.39847 66.76838 238.94534 66.11213Q239.50784 65.45588 240.55472 64.596504Q242.19534 63.252754 242.75784 62.471504Q243.33597 61.690254 243.33597 60.98713Q243.33597 60.252754 242.80472 59.752754Q242.2891 59.252754 241.46097 59.252754Q240.57034 59.252754 240.02347 59.784004Q239.49222 60.315254 239.49222 61.26838L238.2266 61.127754Q238.3516 59.721504 239.19534 58.98713Q240.05472 58.23713 241.4766 58.23713Q242.92972 58.23713 243.75784 59.034004Q244.6016 59.83088 244.6016 61.01838Q244.6016 61.627754 244.3516 62.20588Q244.11722 62.784004 243.5391 63.42463Q242.9766 64.065254 241.64847 65.190254Q240.5391 66.11213 240.2266 66.45588Q239.9141 66.784004 239.71097 67.11213L244.61722 67.11213ZM246.83597 68.29963L246.83597 66.89338L248.24222 66.89338L248.24222 68.29963L246.83597 68.29963ZM250.14847 63.36213Q250.14847 61.58088 250.50784 60.502754Q250.88284 59.409004 251.6016 58.83088Q252.32034 58.23713 253.4141 58.23713Q254.2266 58.23713 254.83597 58.565254Q255.44534 58.89338 255.83597 59.502754Q256.24222 60.11213 256.46097 60.98713Q256.67972 61.86213 256.67972 63.36213Q256.67972 65.127754 256.32034 66.20588Q255.96097 67.284004 255.24222 67.877754Q254.52347 68.471504 253.4141 68.471504Q251.9766 68.471504 251.14847 67.42463Q250.14847 66.17463 250.14847 63.36213ZM251.4141 63.36213Q251.4141 65.83088 251.99222 66.64338Q252.57034 67.45588 253.4141 67.45588Q254.27347 67.45588 254.8516 66.64338Q255.42972 65.815254 255.42972 63.36213Q255.42972 60.877754 254.8516 60.065254Q254.27347 59.252754 253.39847 59.252754Q252.55472 59.252754 252.05472 59.971504Q251.4141 60.89338 251.4141 63.36213ZM258.38284 60.690254Q258.38284 59.61213 258.9141 58.86213Q259.46097 58.11213 260.49222 58.11213Q261.42972 58.11213 262.0391 58.784004Q262.6641 59.45588 262.6641 60.752754Q262.6641 62.034004 262.0391 62.721504Q261.4141 63.409004 260.50784 63.409004Q259.6016 63.409004 258.99222 62.73713Q258.38284 62.04963 258.38284 60.690254ZM260.52347 58.95588Q260.07034 58.95588 259.75784 59.36213Q259.46097 59.752754 259.46097 60.79963Q259.46097 61.76838 259.75784 62.159004Q260.07034 62.54963 260.52347 62.54963Q260.99222 62.54963 261.2891 62.159004Q261.6016 61.76838 261.6016 60.70588Q261.6016 59.73713 261.2891 59.346504Q260.9766 58.95588 260.52347 58.95588ZM260.52347 68.67463L266.00784 58.11213L267.00784 58.11213L261.55472 68.67463L260.52347 68.67463ZM264.86722 65.940254Q264.86722 64.86213 265.39847 64.127754Q265.94534 63.377754 266.9766 63.377754Q267.9141 63.377754 268.5391 64.04963Q269.1641 64.721504 269.1641 66.01838Q269.1641 67.29963 268.5391 67.98713Q267.9141 68.67463 266.9766 68.67463Q266.07034 68.67463 265.46097 68.002754Q264.86722 67.315254 264.86722 65.940254ZM267.00784 64.221504Q266.5391 64.221504 266.24222 64.627754Q265.94534 65.01838 265.94534 66.065254Q265.94534 67.034004 266.24222 67.42463Q266.55472 67.815254 267.00784 67.815254Q267.4766 67.815254 267.77347 67.42463Q268.08597 67.034004 268.08597 65.971504Q268.08597 65.002754 267.77347 64.61213Q267.4766 64.221504 267.00784 64.221504Z" fill-rule="nonzero"/><path fill="#4285f4" d="M31.0 327.45C31.0 330.7637 28.31371 333.45 25.0 333.45C21.68629 333.45 19.0 330.7637 19.0 327.45C19.0 324.1363 21.68629 321.45 25.0 321.45C28.31371 321.45 31.0 324.1363 31.0 327.45Z" fill-rule="nonzero"/><path fill="#1a1a1a" d="M39.96875 331.45L39.96875 322.85626L41.09375 322.85626L41.09375 326.3875L45.5625 326.3875L45.5625 322.85626L46.703125 322.85626L46.703125 331.45L45.5625 331.45L45.5625 327.40314L41.09375 327.40314L41.09375 331.45L39.96875 331.45ZM48.40625 328.34064Q48.40625 326.60626 49.359375 325.77814Q50.15625 325.09064 51.3125 325.09064Q52.59375 325.09064 53.40625 325.9344Q54.234375 326.7625 54.234375 328.2469Q54.234375 329.45 53.875 330.1375Q53.515625 330.825 52.8125 331.21564Q52.125 331.59064 51.3125 331.59064Q50.015625 331.59064 49.203125 330.7625Q48.40625 329.91876 48.40625 328.34064ZM49.484375 328.34064Q49.484375 329.52814 50.0 330.1219Q50.53125 330.71564 51.3125 330.71564Q52.109375 330.71564 52.625 330.1219Q53.140625 329.52814 53.140625 328.3094Q53.140625 327.15314 52.609375 326.5594Q52.09375 325.96564 51.3125 325.96564Q50.53125 325.96564 50.0 326.5594Q49.484375 327.1375 49.484375 328.34064ZM59.875 331.45L59.875 330.52814Q59.140625 331.59064 57.890625 331.59064Q57.34375 331.59064 56.859375 331.3875Q56.390625 331.16876 56.15625 330.85626Q55.921875 330.52814 55.828125 330.0594Q55.765625 329.7625 55.765625 329.075L55.765625 325.23126L56.828125 325.23126L56.828125 328.6844Q56.828125 329.4969 56.890625 329.79376Q56.984375 330.2 57.296875 330.45Q57.625 330.6844 58.109375 330.6844Q58.578125 330.6844 58.984375 330.45Q59.40625 330.2 59.578125 329.77814Q59.765625 329.35626 59.765625 328.5594L59.765625 325.23126L60.8125 325.23126L60.8125 331.45L59.875 331.45ZM62.375 329.59064L63.40625 329.4344Q63.5 330.0594 63.890625 330.3875Q64.296875 330.71564 65.03125 330.71564Q65.75 330.71564 66.09375 330.4344Q66.453125 330.1375 66.453125 329.73126Q66.453125 329.3719 66.140625 329.16876Q65.921875 329.02814 65.0625 328.8094Q63.90625 328.5125 63.453125 328.3094Q63.015625 328.09064 62.78125 327.71564Q62.546875 327.34064 62.546875 326.8719Q62.546875 326.46564 62.734375 326.10626Q62.921875 325.7469 63.25 325.5125Q63.5 325.34064 63.921875 325.21564Q64.34375 325.09064 64.84375 325.09064Q65.5625 325.09064 66.109375 325.3094Q66.671875 325.5125 66.9375 325.8719Q67.203125 326.23126 67.296875 326.825L66.265625 326.96564Q66.203125 326.4969 65.859375 326.23126Q65.53125 325.95 64.90625 325.95Q64.1875 325.95 63.875 326.2Q63.5625 326.4344 63.5625 326.7625Q63.5625 326.96564 63.6875 327.1219Q63.828125 327.29376 64.09375 327.40314Q64.25 327.46564 65.03125 327.66876Q66.15625 327.98126 66.59375 328.16876Q67.03125 328.35626 67.28125 328.71564Q67.53125 329.075 67.53125 329.6219Q67.53125 330.15314 67.21875 330.6219Q66.921875 331.075 66.34375 331.34064Q65.765625 331.59064 65.03125 331.59064Q63.8125 331.59064 63.171875 331.09064Q62.546875 330.575 62.375 329.59064ZM69.796875 324.075L69.796875 322.85626L70.859375 322.85626L70.859375 324.075L69.796875 324.075ZM69.796875 331.45L69.796875 325.23126L70.859375 325.23126L70.859375 331.45L69.796875 331.45ZM72.796875 331.45L72.796875 325.23126L73.734375 325.23126L73.734375 326.10626Q74.421875 325.09064 75.71875 325.09064Q76.28125 325.09064 76.75 325.29376Q77.234375 325.4969 77.46875 325.825Q77.703125 326.15314 77.796875 326.59064Q77.84375 326.8875 77.84375 327.6219L77.84375 331.45L76.796875 331.45L76.796875 327.66876Q76.796875 327.0125 76.671875 326.7Q76.546875 326.3875 76.234375 326.2Q75.921875 325.9969 75.5 325.9969Q74.828125 325.9969 74.328125 326.4344Q73.84375 326.85626 73.84375 328.04376L73.84375 331.45L72.796875 331.45ZM79.59375 331.96564L80.625 332.1219Q80.6875 332.59064 80.984375 332.8094Q81.375 333.10626 82.046875 333.10626Q82.78125 333.10626 83.171875 332.8094Q83.578125 332.5125 83.71875 331.9969Q83.8125 331.66876 83.796875 330.6375Q83.109375 331.45 82.078125 331.45Q80.796875 331.45 80.09375 330.52814Q79.390625 329.59064 79.390625 328.3094Q79.390625 327.41876 79.703125 326.66876Q80.03125 325.90314 80.640625 325.4969Q81.25 325.09064 82.078125 325.09064Q83.1875 325.09064 83.90625 325.98126L83.90625 325.23126L84.875 325.23126L84.875 330.60626Q84.875 332.0594 84.578125 332.66876Q84.28125 333.27814 83.640625 333.6219Q83.0 333.98126 82.0625 333.98126Q80.953125 333.98126 80.265625 333.48126Q79.578125 332.98126 79.59375 331.96564ZM80.46875 328.23126Q80.46875 329.45 80.953125 330.0125Q81.4375 330.575 82.171875 330.575Q82.90625 330.575 83.390625 330.0125Q83.890625 329.45 83.890625 328.2625Q83.890625 327.1219 83.375 326.54376Q82.875 325.96564 82.15625 325.96564Q81.453125 325.96564 80.953125 326.54376Q80.46875 327.10626 80.46875 328.23126Z" fill-rule="nonzero"/><path fill="#ea4335" d="M114.0 327.45C114.0 330.7637 111.313705 333.45 108.0 333.45C104.686295 333.45 102.0 330.7637 102.0 327.45C102.0 324.1363 104.686295 321.45 108.0 321.45C111.313705 321.45 114.0 324.1363 114.0 327.45Z" fill-rule="nonzero"/><path fill="#1a1a1a" d="M125.109375 331.45L125.109375 323.8719L122.28125 323.8719L122.28125 322.85626L129.09375 322.85626L129.09375 323.8719L126.25 323.8719L126.25 331.45L125.109375 331.45ZM129.78125 331.45L129.78125 325.23126L130.73438 325.23126L130.73438 326.16876Q131.09375 325.5125 131.39062 325.3094Q131.70312 325.09064 132.07812 325.09064Q132.60938 325.09064 133.15625 325.41876L132.79688 326.40314Q132.40625 326.16876 132.03125 326.16876Q131.67188 326.16876 131.39062 326.3875Q131.125 326.59064 131.01562 326.96564Q130.82812 327.52814 130.82812 328.1844L130.82812 331.45L129.78125 331.45ZM137.85938 330.6844Q137.26562 331.1844 136.71875 331.3875Q136.1875 331.59064 135.5625 331.59064Q134.53125 331.59064 133.98438 331.09064Q133.4375 330.59064 133.4375 329.8094Q133.4375 329.35626 133.64062 328.98126Q133.84375 328.59064 134.1875 328.3719Q134.53125 328.1375 134.95312 328.02814Q135.25 327.9344 135.89062 327.85626Q137.15625 327.71564 137.76562 327.4969Q137.76562 327.27814 137.76562 327.23126Q137.76562 326.575 137.46875 326.3094Q137.0625 325.96564 136.26562 325.96564Q135.53125 325.96564 135.17188 326.23126Q134.8125 326.48126 134.64062 327.1375L133.60938 326.9969Q133.75 326.34064 134.07812 325.9344Q134.40625 325.52814 135.01562 325.3094Q135.625 325.09064 136.42188 325.09064Q137.21875 325.09064 137.71875 325.27814Q138.21875 325.46564 138.45312 325.7469Q138.6875 326.02814 138.78125 326.46564Q138.82812 326.73126 138.82812 327.4344L138.82812 328.84064Q138.82812 330.3094 138.89062 330.7Q138.96875 331.09064 139.17188 331.45L138.0625 331.45Q137.90625 331.1219 137.85938 330.6844ZM137.76562 328.325Q137.1875 328.5594 136.04688 328.73126Q135.39062 328.825 135.125 328.95Q134.85938 329.0594 134.70312 329.27814Q134.5625 329.4969 134.5625 329.77814Q134.5625 330.2 134.875 330.48126Q135.20312 330.7625 135.8125 330.7625Q136.42188 330.7625 136.89062 330.4969Q137.375 330.23126 137.59375 329.7625Q137.76562 329.40314 137.76562 328.71564L137.76562 328.325ZM140.79688 331.45L140.79688 325.23126L141.73438 325.23126L141.73438 326.10626Q142.42188 325.09064 143.71875 325.09064Q144.28125 325.09064 144.75 325.29376Q145.23438 325.4969 145.46875 325.825Q145.70312 326.15314 145.79688 326.59064Q145.84375 326.8875 145.84375 327.6219L145.84375 331.45L144.79688 331.45L144.79688 327.66876Q144.79688 327.0125 144.67188 326.7Q144.54688 326.3875 144.23438 326.2Q143.92188 325.9969 143.5 325.9969Q142.82812 325.9969 142.32812 326.4344Q141.84375 326.85626 141.84375 328.04376L141.84375 331.45L140.79688 331.45ZM147.375 329.59064L148.40625 329.4344Q148.5 330.0594 148.89062 330.3875Q149.29688 330.71564 150.03125 330.71564Q150.75 330.71564 151.09375 330.4344Q151.45312 330.1375 151.45312 329.73126Q151.45312 329.3719 151.14062 329.16876Q150.92188 329.02814 150.0625 328.8094Q148.90625 328.5125 148.45312 328.3094Q148.01562 328.09064 147.78125 327.71564Q147.54688 327.34064 147.54688 326.8719Q147.54688 326.46564 147.73438 326.10626Q147.92188 325.7469 148.25 325.5125Q148.5 325.34064 148.92188 325.21564Q149.34375 325.09064 149.84375 325.09064Q150.5625 325.09064 151.10938 325.3094Q151.67188 325.5125 151.9375 325.8719Q152.20312 326.23126 152.29688 326.825L151.26562 326.96564Q151.20312 326.4969 150.85938 326.23126Q150.53125 325.95 149.90625 325.95Q149.1875 325.95 148.875 326.2Q148.5625 326.4344 148.5625 326.7625Q148.5625 326.96564 148.6875 327.1219Q148.82812 327.29376 149.09375 327.40314Q149.25 327.46564 150.03125 327.66876Q151.15625 327.98126 151.59375 328.16876Q152.03125 328.35626 152.28125 328.71564Q152.53125 329.075 152.53125 329.6219Q152.53125 330.15314 152.21875 330.6219Q151.92188 331.075 151.34375 331.34064Q150.76562 331.59064 150.03125 331.59064Q148.8125 331.59064 148.17188 331.09064Q147.54688 330.575 147.375 329.59064ZM154.79688 333.84064L154.79688 325.23126L155.75 325.23126L155.75 326.02814Q156.09375 325.5594 156.51562 325.325Q156.95312 325.09064 157.5625 325.09064Q158.35938 325.09064 158.96875 325.4969Q159.57812 325.90314 159.875 326.65314Q160.1875 327.40314 160.1875 328.29376Q160.1875 329.2469 159.84375 330.0125Q159.51562 330.77814 158.85938 331.1844Q158.20312 331.59064 157.48438 331.59064Q156.95312 331.59064 156.53125 331.3719Q156.10938 331.1375 155.84375 330.8094L155.84375 333.84064L154.79688 333.84064ZM155.75 328.3719Q155.75 329.575 156.23438 330.15314Q156.71875 330.71564 157.40625 330.71564Q158.10938 330.71564 158.60938 330.1219Q159.10938 329.52814 159.10938 328.27814Q159.10938 327.09064 158.625 326.5125Q158.14062 325.91876 157.45312 325.91876Q156.78125 325.91876 156.26562 326.54376Q155.75 327.16876 155.75 328.3719ZM161.40625 328.34064Q161.40625 326.60626 162.35938 325.77814Q163.15625 325.09064 164.3125 325.09064Q165.59375 325.09064 166.40625 325.9344Q167.23438 326.7625 167.23438 328.2469Q167.23438 329.45 166.875 330.1375Q166.51562 330.825 165.8125 331.21564Q165.125 331.59064 164.3125 331.59064Q163.01562 331.59064 162.20312 330.7625Q161.40625 329.91876 161.40625 328.34064ZM162.48438 328.34064Q162.48438 329.52814 163.0 330.1219Q163.53125 330.71564 164.3125 330.71564Q165.10938 330.71564 165.625 330.1219Q166.14062 329.52814 166.14062 328.3094Q166.14062 327.15314 165.60938 326.5594Q165.09375 325.96564 164.3125 325.96564Q163.53125 325.96564 163.0 326.5594Q162.48438 327.1375 162.48438 328.34064ZM168.78125 331.45L168.78125 325.23126L169.73438 325.23126L169.73438 326.16876Q170.09375 325.5125 170.39062 325.3094Q170.70312 325.09064 171.07812 325.09064Q171.60938 325.09064 172.15625 325.41876L171.79688 326.40314Q171.40625 326.16876 171.03125 326.16876Q170.67188 326.16876 170.39062 326.3875Q170.125 326.59064 170.01562 326.96564Q169.82812 327.52814 169.82812 328.1844L169.82812 331.45L168.78125 331.45ZM175.09375 330.5125L175.25 331.4344Q174.79688 331.52814 174.45312 331.52814Q173.875 331.52814 173.5625 331.35626Q173.25 331.16876 173.10938 330.8719Q172.98438 330.575 172.98438 329.6219L172.98438 326.04376L172.21875 326.04376L172.21875 325.23126L172.98438 325.23126L172.98438 323.6844L174.03125 323.0594L174.03125 325.23126L175.09375 325.23126L175.09375 326.04376L174.03125 326.04376L174.03125 329.6844Q174.03125 330.1375 174.07812 330.2625Q174.14062 330.3875 174.26562 330.46564Q174.39062 330.54376 174.625 330.54376Q174.8125 330.54376 175.09375 330.5125ZM179.85938 330.6844Q179.26562 331.1844 178.71875 331.3875Q178.1875 331.59064 177.5625 331.59064Q176.53125 331.59064 175.98438 331.09064Q175.4375 330.59064 175.4375 329.8094Q175.4375 329.35626 175.64062 328.98126Q175.84375 328.59064 176.1875 328.3719Q176.53125 328.1375 176.95312 328.02814Q177.25 327.9344 177.89062 327.85626Q179.15625 327.71564 179.76562 327.4969Q179.76562 327.27814 179.76562 327.23126Q179.76562 326.575 179.46875 326.3094Q179.0625 325.96564 178.26562 325.96564Q177.53125 325.96564 177.17188 326.23126Q176.8125 326.48126 176.64062 327.1375L175.60938 326.9969Q175.75 326.34064 176.07812 325.9344Q176.40625 325.52814 177.01562 325.3094Q177.625 325.09064 178.42188 325.09064Q179.21875 325.09064 179.71875 325.27814Q180.21875 325.46564 180.45312 325.7469Q180.6875 326.02814 180.78125 326.46564Q180.82812 326.73126 180.82812 327.4344L180.82812 328.84064Q180.82812 330.3094 180.89062 330.7Q180.96875 331.09064 181.17188 331.45L180.0625 331.45Q179.90625 331.1219 179.85938 330.6844ZM179.76562 328.325Q179.1875 328.5594 178.04688 328.73126Q177.39062 328.825 177.125 328.95Q176.85938 329.0594 176.70312 329.27814Q176.5625 329.4969 176.5625 329.77814Q176.5625 330.2 176.875 330.48126Q177.20312 330.7625 177.8125 330.7625Q178.42188 330.7625 178.89062 330.4969Q179.375 330.23126 179.59375 329.7625Q179.76562 329.40314 179.76562 328.71564L179.76562 328.325ZM185.09375 330.5125L185.25 331.4344Q184.79688 331.52814 184.45312 331.52814Q183.875 331.52814 183.5625 331.35626Q183.25 331.16876 183.10938 330.8719Q182.98438 330.575 182.98438 329.6219L182.98438 326.04376L182.21875 326.04376L182.21875 325.23126L182.98438 325.23126L182.98438 323.6844L184.03125 323.0594L184.03125 325.23126L185.09375 325.23126L185.09375 326.04376L184.03125 326.04376L184.03125 329.6844Q184.03125 330.1375 184.07812 330.2625Q184.14062 330.3875 184.26562 330.46564Q184.39062 330.54376 184.625 330.54376Q184.8125 330.54376 185.09375 330.5125ZM185.79688 324.075L185.79688 322.85626L186.85938 322.85626L186.85938 324.075L185.79688 324.075ZM185.79688 331.45L185.79688 325.23126L186.85938 325.23126L186.85938 331.45L185.79688 331.45ZM188.40625 328.34064Q188.40625 326.60626 189.35938 325.77814Q190.15625 325.09064 191.3125 325.09064Q192.59375 325.09064 193.40625 325.9344Q194.23438 326.7625 194.23438 328.2469Q194.23438 329.45 193.875 330.1375Q193.51562 330.825 192.8125 331.21564Q192.125 331.59064 191.3125 331.59064Q190.01562 331.59064 189.20312 330.7625Q188.40625 329.91876 188.40625 328.34064ZM189.48438 328.34064Q189.48438 329.52814 190.0 330.1219Q190.53125 330.71564 191.3125 330.71564Q192.10938 330.71564 192.625 330.1219Q193.14062 329.52814 193.14062 328.3094Q193.14062 327.15314 192.60938 326.5594Q192.09375 325.96564 191.3125 325.96564Q190.53125 325.96564 190.0 326.5594Q189.48438 327.1375 189.48438 328.34064ZM195.79688 331.45L195.79688 325.23126L196.73438 325.23126L196.73438 326.10626Q197.42188 325.09064 198.71875 325.09064Q199.28125 325.09064 199.75 325.29376Q200.23438 325.4969 200.46875 325.825Q200.70312 326.15314 200.79688 326.59064Q200.84375 326.8875 200.84375 327.6219L200.84375 331.45L199.79688 331.45L199.79688 327.66876Q199.79688 327.0125 199.67188 326.7Q199.54688 326.3875 199.23438 326.2Q198.92188 325.9969 198.5 325.9969Q197.82812 325.9969 197.32812 326.4344Q196.84375 326.85626 196.84375 328.04376L196.84375 331.45L195.79688 331.45Z" fill-rule="nonzero"/><path fill="#fbbc04" d="M230.0 327.45C230.0 330.7637 227.3137 333.45 224.0 333.45C220.6863 333.45 218.0 330.7637 218.0 327.45C218.0 324.1363 220.6863 321.45 224.0 321.45C227.3137 321.45 230.0 324.1363 230.0 327.45Z" fill-rule="nonzero"/><path fill="#1a1a1a" d="M238.98438 331.45L238.98438 322.85626L244.78125 322.85626L244.78125 323.8719L240.125 323.8719L240.125 326.52814L244.15625 326.52814L244.15625 327.54376L240.125 327.54376L240.125 331.45L238.98438 331.45ZM245.40625 328.34064Q245.40625 326.60626 246.35938 325.77814Q247.15625 325.09064 248.3125 325.09064Q249.59375 325.09064 250.40625 325.9344Q251.23438 326.7625 251.23438 328.2469Q251.23438 329.45 250.875 330.1375Q250.51562 330.825 249.8125 331.21564Q249.125 331.59064 248.3125 331.59064Q247.01562 331.59064 246.20312 330.7625Q245.40625 329.91876 245.40625 328.34064ZM246.48438 328.34064Q246.48438 329.52814 247.0 330.1219Q247.53125 330.71564 248.3125 330.71564Q249.10938 330.71564 249.625 330.1219Q250.14062 329.52814 250.14062 328.3094Q250.14062 327.15314 249.60938 326.5594Q249.09375 325.96564 248.3125 325.96564Q247.53125 325.96564 247.0 326.5594Q246.48438 327.1375 246.48438 328.34064ZM252.40625 328.34064Q252.40625 326.60626 253.35938 325.77814Q254.15625 325.09064 255.3125 325.09064Q256.59375 325.09064 257.40625 325.9344Q258.23438 326.7625 258.23438 328.2469Q258.23438 329.45 257.875 330.1375Q257.51562 330.825 256.8125 331.21564Q256.125 331.59064 255.3125 331.59064Q254.01562 331.59064 253.20312 330.7625Q252.40625 329.91876 252.40625 328.34064ZM253.48438 328.34064Q253.48438 329.52814 254.0 330.1219Q254.53125 330.71564 255.3125 330.71564Q256.10938 330.71564 256.625 330.1219Q257.14062 329.52814 257.14062 328.3094Q257.14062 327.15314 256.60938 326.5594Q256.09375 325.96564 255.3125 325.96564Q254.53125 325.96564 254.0 326.5594Q253.48438 327.1375 253.48438 328.34064ZM263.82812 331.45L263.82812 330.66876Q263.23438 331.59064 262.09375 331.59064Q261.34375 331.59064 260.71875 331.1844Q260.09375 330.7625 259.75 330.02814Q259.40625 329.29376 259.40625 328.34064Q259.40625 327.41876 259.71875 326.65314Q260.03125 325.8875 260.65625 325.4969Q261.28125 325.09064 262.04688 325.09064Q262.60938 325.09064 263.04688 325.325Q263.48438 325.5594 263.76562 325.9344L263.76562 322.85626L264.8125 322.85626L264.8125 331.45L263.82812 331.45ZM260.5 328.34064Q260.5 329.54376 261.0 330.1375Q261.5 330.71564 262.1875 330.71564Q262.875 330.71564 263.35938 330.15314Q263.84375 329.59064 263.84375 328.4344Q263.84375 327.15314 263.34375 326.5594Q262.85938 325.96564 262.14062 325.96564Q261.4375 325.96564 260.96875 326.54376Q260.5 327.10626 260.5 328.34064Z" fill-rule="nonzero"/><path fill="#34a853" d="M294.0 327.45C294.0 330.7637 291.31372 333.45 288.0 333.45C284.68628 333.45 282.0 330.7637 282.0 327.45C282.0 324.1363 284.68628 321.45 288.0 321.45C291.31372 321.45 294.0 324.1363 294.0 327.45Z" fill-rule="nonzero"/><path fill="#1a1a1a" d="M303.125 331.45L303.125 322.85626L304.25 322.85626L304.25 331.45L303.125 331.45ZM305.79688 331.45L305.79688 325.23126L306.73438 325.23126L306.73438 326.10626Q307.42188 325.09064 308.71875 325.09064Q309.28125 325.09064 309.75 325.29376Q310.23438 325.4969 310.46875 325.825Q310.70312 326.15314 310.79688 326.59064Q310.84375 326.8875 310.84375 327.6219L310.84375 331.45L309.79688 331.45L309.79688 327.66876Q309.79688 327.0125 309.67188 326.7Q309.54688 326.3875 309.23438 326.2Q308.92188 325.9969 308.5 325.9969Q307.82812 325.9969 307.32812 326.4344Q306.84375 326.85626 306.84375 328.04376L306.84375 331.45L305.79688 331.45ZM312.375 329.59064L313.40625 329.4344Q313.5 330.0594 313.89062 330.3875Q314.29688 330.71564 315.03125 330.71564Q315.75 330.71564 316.09375 330.4344Q316.45312 330.1375 316.45312 329.73126Q316.45312 329.3719 316.14062 329.16876Q315.92188 329.02814 315.0625 328.8094Q313.90625 328.5125 313.45312 328.3094Q313.01562 328.09064 312.78125 327.71564Q312.54688 327.34064 312.54688 326.8719Q312.54688 326.46564 312.73438 326.10626Q312.92188 325.7469 313.25 325.5125Q313.5 325.34064 313.92188 325.21564Q314.34375 325.09064 314.84375 325.09064Q315.5625 325.09064 316.10938 325.3094Q316.67188 325.5125 316.9375 325.8719Q317.20312 326.23126 317.29688 326.825L316.26562 326.96564Q316.20312 326.4969 315.85938 326.23126Q315.53125 325.95 314.90625 325.95Q314.1875 325.95 313.875 326.2Q313.5625 326.4344 313.5625 326.7625Q313.5625 326.96564 313.6875 327.1219Q313.82812 327.29376 314.09375 327.40314Q314.25 327.46564 315.03125 327.66876Q316.15625 327.98126 316.59375 328.16876Q317.03125 328.35626 317.28125 328.71564Q317.53125 329.075 317.53125 329.6219Q317.53125 330.15314 317.21875 330.6219Q316.92188 331.075 316.34375 331.34064Q315.76562 331.59064 315.03125 331.59064Q313.8125 331.59064 313.17188 331.09064Q312.54688 330.575 312.375 329.59064ZM323.875 331.45L323.875 330.52814Q323.14062 331.59064 321.89062 331.59064Q321.34375 331.59064 320.85938 331.3875Q320.39062 331.16876 320.15625 330.85626Q319.92188 330.52814 319.82812 330.0594Q319.76562 329.7625 319.76562 329.075L319.76562 325.23126L320.82812 325.23126L320.82812 328.6844Q320.82812 329.4969 320.89062 329.79376Q320.98438 330.2 321.29688 330.45Q321.625 330.6844 322.10938 330.6844Q322.57812 330.6844 322.98438 330.45Q323.40625 330.2 323.57812 329.77814Q323.76562 329.35626 323.76562 328.5594L323.76562 325.23126L324.8125 325.23126L324.8125 331.45L323.875 331.45ZM326.78125 331.45L326.78125 325.23126L327.73438 325.23126L327.73438 326.16876Q328.09375 325.5125 328.39062 325.3094Q328.70312 325.09064 329.07812 325.09064Q329.60938 325.09064 330.15625 325.41876L329.79688 326.40314Q329.40625 326.16876 329.03125 326.16876Q328.67188 326.16876 328.39062 326.3875Q328.125 326.59064 328.01562 326.96564Q327.82812 327.52814 327.82812 328.1844L327.82812 331.45L326.78125 331.45ZM334.85938 330.6844Q334.26562 331.1844 333.71875 331.3875Q333.1875 331.59064 332.5625 331.59064Q331.53125 331.59064 330.98438 331.09064Q330.4375 330.59064 330.4375 329.8094Q330.4375 329.35626 330.64062 328.98126Q330.84375 328.59064 331.1875 328.3719Q331.53125 328.1375 331.95312 328.02814Q332.25 327.9344 332.89062 327.85626Q334.15625 327.71564 334.76562 327.4969Q334.76562 327.27814 334.76562 327.23126Q334.76562 326.575 334.46875 326.3094Q334.0625 325.96564 333.26562 325.96564Q332.53125 325.96564 332.17188 326.23126Q331.8125 326.48126 331.64062 327.1375L330.60938 326.9969Q330.75 326.34064 331.07812 325.9344Q331.40625 325.52814 332.01562 325.3094Q332.625 325.09064 333.42188 325.09064Q334.21875 325.09064 334.71875 325.27814Q335.21875 325.46564 335.45312 325.7469Q335.6875 326.02814 335.78125 326.46564Q335.82812 326.73126 335.82812 327.4344L335.82812 328.84064Q335.82812 330.3094 335.89062 330.7Q335.96875 331.09064 336.17188 331.45L335.0625 331.45Q334.90625 331.1219 334.85938 330.6844ZM334.76562 328.325Q334.1875 328.5594 333.04688 328.73126Q332.39062 328.825 332.125 328.95Q331.85938 329.0594 331.70312 329.27814Q331.5625 329.4969 331.5625 329.77814Q331.5625 330.2 331.875 330.48126Q332.20312 330.7625 332.8125 330.7625Q333.42188 330.7625 333.89062 330.4969Q334.375 330.23126 334.59375 329.7625Q334.76562 329.40314 334.76562 328.71564L334.76562 328.325ZM337.79688 331.45L337.79688 325.23126L338.73438 325.23126L338.73438 326.10626Q339.42188 325.09064 340.71875 325.09064Q341.28125 325.09064 341.75 325.29376Q342.23438 325.4969 342.46875 325.825Q342.70312 326.15314 342.79688 326.59064Q342.84375 326.8875 342.84375 327.6219L342.84375 331.45L341.79688 331.45L341.79688 327.66876Q341.79688 327.0125 341.67188 326.7Q341.54688 326.3875 341.23438 326.2Q340.92188 325.9969 340.5 325.9969Q339.82812 325.9969 339.32812 326.4344Q338.84375 326.85626 338.84375 328.04376L338.84375 331.45L337.79688 331.45ZM348.85938 329.16876L349.89062 329.3094Q349.71875 330.3719 349.01562 330.98126Q348.3125 331.59064 347.29688 331.59064Q346.01562 331.59064 345.23438 330.7625Q344.46875 329.91876 344.46875 328.35626Q344.46875 327.35626 344.79688 326.60626Q345.14062 325.84064 345.8125 325.46564Q346.5 325.09064 347.3125 325.09064Q348.3125 325.09064 348.95312 325.60626Q349.60938 326.10626 349.79688 327.0594L348.76562 327.21564Q348.625 326.59064 348.25 326.27814Q347.875 325.95 347.34375 325.95Q346.54688 325.95 346.04688 326.52814Q345.54688 327.09064 345.54688 328.325Q345.54688 329.59064 346.03125 330.15314Q346.51562 330.71564 347.28125 330.71564Q347.90625 330.71564 348.3125 330.34064Q348.73438 329.96564 348.85938 329.16876ZM355.04688 329.45L356.14062 329.575Q355.89062 330.52814 355.1875 331.0594Q354.48438 331.59064 353.40625 331.59064Q352.04688 331.59064 351.23438 330.7469Q350.4375 329.90314 350.4375 328.3875Q350.4375 326.825 351.25 325.96564Q352.0625 325.09064 353.34375 325.09064Q354.59375 325.09064 355.375 325.9344Q356.17188 326.77814 356.17188 328.325Q356.17188 328.41876 356.17188 328.60626L351.53125 328.60626Q351.59375 329.6375 352.10938 330.1844Q352.625 330.71564 353.40625 330.71564Q353.98438 330.71564 354.39062 330.41876Q354.8125 330.10626 355.04688 329.45ZM351.59375 327.7469L355.0625 327.7469Q355.0 326.95 354.67188 326.5594Q354.15625 325.95 353.35938 325.95Q352.625 325.95 352.125 326.4344Q351.64062 326.91876 351.59375 327.7469ZM365.70312 330.4344Q365.1875 331.0125 364.5625 331.3094Q363.95312 331.59064 363.23438 331.59064Q361.92188 331.59064 361.14062 330.7Q360.51562 329.98126 360.51562 329.075Q360.51562 328.27814 361.03125 327.6375Q361.54688 326.9969 362.5625 326.5125Q361.98438 325.84064 361.78125 325.4344Q361.59375 325.0125 361.59375 324.6219Q361.59375 323.85626 362.20312 323.29376Q362.8125 322.71564 363.73438 322.71564Q364.60938 322.71564 365.15625 323.2625Q365.71875 323.79376 365.71875 324.54376Q365.71875 325.77814 364.10938 326.6375L365.64062 328.60626Q365.90625 328.09064 366.04688 327.40314L367.15625 327.6375Q366.875 328.7625 366.39062 329.4969Q366.98438 330.27814 367.73438 330.8094L367.01562 331.65314Q366.375 331.23126 365.70312 330.4344ZM363.5625 325.96564Q364.25 325.5594 364.4375 325.2625Q364.64062 324.95 364.64062 324.575Q364.64062 324.1375 364.35938 323.85626Q364.09375 323.575 363.67188 323.575Q363.25 323.575 362.95312 323.85626Q362.67188 324.1375 362.67188 324.52814Q362.67188 324.73126 362.78125 324.95Q362.89062 325.16876 363.09375 325.41876L363.5625 325.96564ZM365.04688 329.60626L363.10938 327.2Q362.25 327.71564 361.95312 328.15314Q361.65625 328.59064 361.65625 329.0125Q361.65625 329.54376 362.0625 330.10626Q362.48438 330.66876 363.25 330.66876Q363.71875 330.66876 364.21875 330.3719Q364.73438 330.075 365.04688 329.60626ZM371.92188 331.45L371.92188 322.85626L375.17188 322.85626Q376.01562 322.85626 376.46875 322.9344Q377.10938 323.04376 377.53125 323.34064Q377.96875 323.6375 378.21875 324.16876Q378.48438 324.7 378.48438 325.34064Q378.48438 326.4344 377.78125 327.2Q377.09375 327.95 375.26562 327.95L373.0625 327.95L373.0625 331.45L371.92188 331.45ZM373.0625 326.95L375.28125 326.95Q376.39062 326.95 376.84375 326.54376Q377.3125 326.1219 377.3125 325.3719Q377.3125 324.84064 377.03125 324.46564Q376.76562 324.075 376.32812 323.95Q376.03125 323.8719 375.26562 323.8719L373.0625 323.8719L373.0625 326.95ZM384.04688 329.45L385.14062 329.575Q384.89062 330.52814 384.1875 331.0594Q383.48438 331.59064 382.40625 331.59064Q381.04688 331.59064 380.23438 330.7469Q379.4375 329.90314 379.4375 328.3875Q379.4375 326.825 380.25 325.96564Q381.0625 325.09064 382.34375 325.09064Q383.59375 325.09064 384.375 325.9344Q385.17188 326.77814 385.17188 328.325Q385.17188 328.41876 385.17188 328.60626L380.53125 328.60626Q380.59375 329.6375 381.10938 330.1844Q381.625 330.71564 382.40625 330.71564Q382.98438 330.71564 383.39062 330.41876Q383.8125 330.10626 384.04688 329.45ZM380.59375 327.7469L384.0625 327.7469Q384.0 326.95 383.67188 326.5594Q383.15625 325.95 382.35938 325.95Q381.625 325.95 381.125 326.4344Q380.64062 326.91876 380.59375 327.7469ZM386.79688 331.45L386.79688 325.23126L387.73438 325.23126L387.73438 326.10626Q388.42188 325.09064 389.71875 325.09064Q390.28125 325.09064 390.75 325.29376Q391.23438 325.4969 391.46875 325.825Q391.70312 326.15314 391.79688 326.59064Q391.84375 326.8875 391.84375 327.6219L391.84375 331.45L390.79688 331.45L390.79688 327.66876Q390.79688 327.0125 390.67188 326.7Q390.54688 326.3875 390.23438 326.2Q389.92188 325.9969 389.5 325.9969Q388.82812 325.9969 388.32812 326.4344Q387.84375 326.85626 387.84375 328.04376L387.84375 331.45L386.79688 331.45ZM393.375 329.59064L394.40625 329.4344Q394.5 330.0594 394.89062 330.3875Q395.29688 330.71564 396.03125 330.71564Q396.75 330.71564 397.09375 330.4344Q397.45312 330.1375 397.45312 329.73126Q397.45312 329.3719 397.14062 329.16876Q396.92188 329.02814 396.0625 328.8094Q394.90625 328.5125 394.45312 328.3094Q394.01562 328.09064 393.78125 327.71564Q393.54688 327.34064 393.54688 326.8719Q393.54688 326.46564 393.73438 326.10626Q393.92188 325.7469 394.25 325.5125Q394.5 325.34064 394.92188 325.21564Q395.34375 325.09064 395.84375 325.09064Q396.5625 325.09064 397.10938 325.3094Q397.67188 325.5125 397.9375 325.8719Q398.20312 326.23126 398.29688 326.825L397.26562 326.96564Q397.20312 326.4969 396.85938 326.23126Q396.53125 325.95 395.90625 325.95Q395.1875 325.95 394.875 326.2Q394.5625 326.4344 394.5625 326.7625Q394.5625 326.96564 394.6875 327.1219Q394.82812 327.29376 395.09375 327.40314Q395.25 327.46564 396.03125 327.66876Q397.15625 327.98126 397.59375 328.16876Q398.03125 328.35626 398.28125 328.71564Q398.53125 329.075 398.53125 329.6219Q398.53125 330.15314 398.21875 330.6219Q397.92188 331.075 397.34375 331.34064Q396.76562 331.59064 396.03125 331.59064Q394.8125 331.59064 394.17188 331.09064Q393.54688 330.575 393.375 329.59064ZM400.79688 324.075L400.79688 322.85626L401.85938 322.85626L401.85938 324.075L400.79688 324.075ZM400.79688 331.45L400.79688 325.23126L401.85938 325.23126L401.85938 331.45L400.79688 331.45ZM403.40625 328.34064Q403.40625 326.60626 404.35938 325.77814Q405.15625 325.09064 406.3125 325.09064Q407.59375 325.09064 408.40625 325.9344Q409.23438 326.7625 409.23438 328.2469Q409.23438 329.45 408.875 330.1375Q408.51562 330.825 407.8125 331.21564Q407.125 331.59064 406.3125 331.59064Q405.01562 331.59064 404.20312 330.7625Q403.40625 329.91876 403.40625 328.34064ZM404.48438 328.34064Q404.48438 329.52814 405.0 330.1219Q405.53125 330.71564 406.3125 330.71564Q407.10938 330.71564 407.625 330.1219Q408.14062 329.52814 408.14062 328.3094Q408.14062 327.15314 407.60938 326.5594Q407.09375 325.96564 406.3125 325.96564Q405.53125 325.96564 405.0 326.5594Q404.48438 327.1375 404.48438 328.34064ZM410.79688 331.45L410.79688 325.23126L411.73438 325.23126L411.73438 326.10626Q412.42188 325.09064 413.71875 325.09064Q414.28125 325.09064 414.75 325.29376Q415.23438 325.4969 415.46875 325.825Q415.70312 326.15314 415.79688 326.59064Q415.84375 326.8875 415.84375 327.6219L415.84375 331.45L414.79688 331.45L414.79688 327.66876Q414.79688 327.0125 414.67188 326.7Q414.54688 326.3875 414.23438 326.2Q413.92188 325.9969 413.5 325.9969Q412.82812 325.9969 412.32812 326.4344Q411.84375 326.85626 411.84375 328.04376L411.84375 331.45L410.79688 331.45ZM417.375 329.59064L418.40625 329.4344Q418.5 330.0594 418.89062 330.3875Q419.29688 330.71564 420.03125 330.71564Q420.75 330.71564 421.09375 330.4344Q421.45312 330.1375 421.45312 329.73126Q421.45312 329.3719 421.14062 329.16876Q420.92188 329.02814 420.0625 328.8094Q418.90625 328.5125 418.45312 328.3094Q418.01562 328.09064 417.78125 327.71564Q417.54688 327.34064 417.54688 326.8719Q417.54688 326.46564 417.73438 326.10626Q417.92188 325.7469 418.25 325.5125Q418.5 325.34064 418.92188 325.21564Q419.34375 325.09064 419.84375 325.09064Q420.5625 325.09064 421.10938 325.3094Q421.67188 325.5125 421.9375 325.8719Q422.20312 326.23126 422.29688 326.825L421.26562 326.96564Q421.20312 326.4969 420.85938 326.23126Q420.53125 325.95 419.90625 325.95Q419.1875 325.95 418.875 326.2Q418.5625 326.4344 418.5625 326.7625Q418.5625 326.96564 418.6875 327.1219Q418.82812 327.29376 419.09375 327.40314Q419.25 327.46564 420.03125 327.66876Q421.15625 327.98126 421.59375 328.16876Q422.03125 328.35626 422.28125 328.71564Q422.53125 329.075 422.53125 329.6219Q422.53125 330.15314 422.21875 330.6219Q421.92188 331.075 421.34375 331.34064Q420.76562 331.59064 420.03125 331.59064Q418.8125 331.59064 418.17188 331.09064Q417.54688 330.575 417.375 329.59064Z" fill-rule="nonzero"/><path fill="#ff6d01" d="M452.0 327.45C452.0 330.7637 449.31372 333.45 446.0 333.45C442.68628 333.45 440.0 330.7637 440.0 327.45C440.0 324.1363 442.68628 321.45 446.0 321.45C449.31372 321.45 452.0 324.1363 452.0 327.45Z" fill-rule="nonzero"/><path fill="#1a1a1a" d="M460.96875 331.45L460.96875 322.85626L462.09375 322.85626L462.09375 326.3875L466.5625 326.3875L466.5625 322.85626L467.70312 322.85626L467.70312 331.45L466.5625 331.45L466.5625 327.40314L462.09375 327.40314L462.09375 331.45L460.96875 331.45ZM474.04688 329.45L475.14062 329.575Q474.89062 330.52814 474.1875 331.0594Q473.48438 331.59064 472.40625 331.59064Q471.04688 331.59064 470.23438 330.7469Q469.4375 329.90314 469.4375 328.3875Q469.4375 326.825 470.25 325.96564Q471.0625 325.09064 472.34375 325.09064Q473.59375 325.09064 474.375 325.9344Q475.17188 326.77814 475.17188 328.325Q475.17188 328.41876 475.17188 328.60626L470.53125 328.60626Q470.59375 329.6375 471.10938 330.1844Q471.625 330.71564 472.40625 330.71564Q472.98438 330.71564 473.39062 330.41876Q473.8125 330.10626 474.04688 329.45ZM470.59375 327.7469L474.0625 327.7469Q474.0 326.95 473.67188 326.5594Q473.15625 325.95 472.35938 325.95Q471.625 325.95 471.125 326.4344Q470.64062 326.91876 470.59375 327.7469ZM480.85938 330.6844Q480.26562 331.1844 479.71875 331.3875Q479.1875 331.59064 478.5625 331.59064Q477.53125 331.59064 476.98438 331.09064Q476.4375 330.59064 476.4375 329.8094Q476.4375 329.35626 476.64062 328.98126Q476.84375 328.59064 477.1875 328.3719Q477.53125 328.1375 477.95312 328.02814Q478.25 327.9344 478.89062 327.85626Q480.15625 327.71564 480.76562 327.4969Q480.76562 327.27814 480.76562 327.23126Q480.76562 326.575 480.46875 326.3094Q480.0625 325.96564 479.26562 325.96564Q478.53125 325.96564 478.17188 326.23126Q477.8125 326.48126 477.64062 327.1375L476.60938 326.9969Q476.75 326.34064 477.07812 325.9344Q477.40625 325.52814 478.01562 325.3094Q478.625 325.09064 479.42188 325.09064Q480.21875 325.09064 480.71875 325.27814Q481.21875 325.46564 481.45312 325.7469Q481.6875 326.02814 481.78125 326.46564Q481.82812 326.73126 481.82812 327.4344L481.82812 328.84064Q481.82812 330.3094 481.89062 330.7Q481.96875 331.09064 482.17188 331.45L481.0625 331.45Q480.90625 331.1219 480.85938 330.6844ZM480.76562 328.325Q480.1875 328.5594 479.04688 328.73126Q478.39062 328.825 478.125 328.95Q477.85938 329.0594 477.70312 329.27814Q477.5625 329.4969 477.5625 329.77814Q477.5625 330.2 477.875 330.48126Q478.20312 330.7625 478.8125 330.7625Q479.42188 330.7625 479.89062 330.4969Q480.375 330.23126 480.59375 329.7625Q480.76562 329.40314 480.76562 328.71564L480.76562 328.325ZM483.76562 331.45L483.76562 322.85626L484.82812 322.85626L484.82812 331.45L483.76562 331.45ZM489.09375 330.5125L489.25 331.4344Q488.79688 331.52814 488.45312 331.52814Q487.875 331.52814 487.5625 331.35626Q487.25 331.16876 487.10938 330.8719Q486.98438 330.575 486.98438 329.6219L486.98438 326.04376L486.21875 326.04376L486.21875 325.23126L486.98438 325.23126L486.98438 323.6844L488.03125 323.0594L488.03125 325.23126L489.09375 325.23126L489.09375 326.04376L488.03125 326.04376L488.03125 329.6844Q488.03125 330.1375 488.07812 330.2625Q488.14062 330.3875 488.26562 330.46564Q488.39062 330.54376 488.625 330.54376Q488.8125 330.54376 489.09375 330.5125ZM489.79688 331.45L489.79688 322.85626L490.84375 322.85626L490.84375 325.9344Q491.57812 325.09064 492.70312 325.09064Q493.40625 325.09064 493.90625 325.3719Q494.42188 325.6375 494.64062 326.1219Q494.85938 326.59064 494.85938 327.5125L494.85938 331.45L493.8125 331.45L493.8125 327.5125Q493.8125 326.71564 493.46875 326.35626Q493.125 325.9969 492.5 325.9969Q492.03125 325.9969 491.60938 326.2469Q491.20312 326.48126 491.01562 326.90314Q490.84375 327.3094 490.84375 328.04376L490.84375 331.45L489.79688 331.45ZM500.85938 329.16876L501.89062 329.3094Q501.71875 330.3719 501.01562 330.98126Q500.3125 331.59064 499.29688 331.59064Q498.01562 331.59064 497.23438 330.7625Q496.46875 329.91876 496.46875 328.35626Q496.46875 327.35626 496.79688 326.60626Q497.14062 325.84064 497.8125 325.46564Q498.5 325.09064 499.3125 325.09064Q500.3125 325.09064 500.95312 325.60626Q501.60938 326.10626 501.79688 327.0594L500.76562 327.21564Q500.625 326.59064 500.25 326.27814Q499.875 325.95 499.34375 325.95Q498.54688 325.95 498.04688 326.52814Q497.54688 327.09064 497.54688 328.325Q497.54688 329.59064 498.03125 330.15314Q498.51562 330.71564 499.28125 330.71564Q499.90625 330.71564 500.3125 330.34064Q500.73438 329.96564 500.85938 329.16876ZM506.85938 330.6844Q506.26562 331.1844 505.71875 331.3875Q505.1875 331.59064 504.5625 331.59064Q503.53125 331.59064 502.98438 331.09064Q502.4375 330.59064 502.4375 329.8094Q502.4375 329.35626 502.64062 328.98126Q502.84375 328.59064 503.1875 328.3719Q503.53125 328.1375 503.95312 328.02814Q504.25 327.9344 504.89062 327.85626Q506.15625 327.71564 506.76562 327.4969Q506.76562 327.27814 506.76562 327.23126Q506.76562 326.575 506.46875 326.3094Q506.0625 325.96564 505.26562 325.96564Q504.53125 325.96564 504.17188 326.23126Q503.8125 326.48126 503.64062 327.1375L502.60938 326.9969Q502.75 326.34064 503.07812 325.9344Q503.40625 325.52814 504.01562 325.3094Q504.625 325.09064 505.42188 325.09064Q506.21875 325.09064 506.71875 325.27814Q507.21875 325.46564 507.45312 325.7469Q507.6875 326.02814 507.78125 326.46564Q507.82812 326.73126 507.82812 327.4344L507.82812 328.84064Q507.82812 330.3094 507.89062 330.7Q507.96875 331.09064 508.17188 331.45L507.0625 331.45Q506.90625 331.1219 506.85938 330.6844ZM506.76562 328.325Q506.1875 328.5594 505.04688 328.73126Q504.39062 328.825 504.125 328.95Q503.85938 329.0594 503.70312 329.27814Q503.5625 329.4969 503.5625 329.77814Q503.5625 330.2 503.875 330.48126Q504.20312 330.7625 504.8125 330.7625Q505.42188 330.7625 505.89062 330.4969Q506.375 330.23126 506.59375 329.7625Q506.76562 329.40314 506.76562 328.71564L506.76562 328.325ZM509.78125 331.45L509.78125 325.23126L510.73438 325.23126L510.73438 326.16876Q511.09375 325.5125 511.39062 325.3094Q511.70312 325.09064 512.0781 325.09064Q512.6094 325.09064 513.15625 325.41876L512.7969 326.40314Q512.40625 326.16876 512.03125 326.16876Q511.67188 326.16876 511.39062 326.3875Q511.125 326.59064 511.01562 326.96564Q510.82812 327.52814 510.82812 328.1844L510.82812 331.45L509.78125 331.45ZM518.0469 329.45L519.1406 329.575Q518.8906 330.52814 518.1875 331.0594Q517.4844 331.59064 516.40625 331.59064Q515.0469 331.59064 514.2344 330.7469Q513.4375 329.90314 513.4375 328.3875Q513.4375 326.825 514.25 325.96564Q515.0625 325.09064 516.34375 325.09064Q517.59375 325.09064 518.375 325.9344Q519.1719 326.77814 519.1719 328.325Q519.1719 328.41876 519.1719 328.60626L514.53125 328.60626Q514.59375 329.6375 515.1094 330.1844Q515.625 330.71564 516.40625 330.71564Q516.9844 330.71564 517.3906 330.41876Q517.8125 330.10626 518.0469 329.45ZM514.59375 327.7469L518.0625 327.7469Q518.0 326.95 517.6719 326.5594Q517.15625 325.95 516.3594 325.95Q515.625 325.95 515.125 326.4344Q514.6406 326.91876 514.59375 327.7469Z" fill-rule="nonzero"/><path fill="#46bdc6" d="M548.0 327.45C548.0 330.7637 545.3137 333.45 542.0 333.45C538.6863 333.45 536.0 330.7637 536.0 327.45C536.0 324.1363 538.6863 321.45 542.0 321.45C545.3137 321.45 548.0 324.1363 548.0 327.45Z" fill-rule="nonzero"/><path fill="#1a1a1a" d="M556.8906 331.45L556.8906 322.85626L558.6094 322.85626L560.6406 328.9344Q560.9219 329.79376 561.0469 330.21564Q561.1875 329.7469 561.5 328.84064L563.5625 322.85626L565.09375 322.85626L565.09375 331.45L564.0 331.45L564.0 324.2625L561.5 331.45L560.46875 331.45L557.9844 324.1375L557.9844 331.45L556.8906 331.45ZM565.7969 324.075L565.7969 322.85626L566.8594 322.85626L566.8594 324.075L565.7969 324.075ZM565.7969 331.45L565.7969 325.23126L566.8594 325.23126L566.8594 331.45L565.7969 331.45ZM568.375 329.59064L569.40625 329.4344Q569.5 330.0594 569.8906 330.3875Q570.2969 330.71564 571.03125 330.71564Q571.75 330.71564 572.09375 330.4344Q572.4531 330.1375 572.4531 329.73126Q572.4531 329.3719 572.1406 329.16876Q571.9219 329.02814 571.0625 328.8094Q569.90625 328.5125 569.4531 328.3094Q569.0156 328.09064 568.78125 327.71564Q568.5469 327.34064 568.5469 326.8719Q568.5469 326.46564 568.7344 326.10626Q568.9219 325.7469 569.25 325.5125Q569.5 325.34064 569.9219 325.21564Q570.34375 325.09064 570.84375 325.09064Q571.5625 325.09064 572.1094 325.3094Q572.6719 325.5125 572.9375 325.8719Q573.2031 326.23126 573.2969 326.825L572.2656 326.96564Q572.2031 326.4969 571.8594 326.23126Q571.53125 325.95 570.90625 325.95Q570.1875 325.95 569.875 326.2Q569.5625 326.4344 569.5625 326.7625Q569.5625 326.96564 569.6875 327.1219Q569.8281 327.29376 570.09375 327.40314Q570.25 327.46564 571.03125 327.66876Q572.15625 327.98126 572.59375 328.16876Q573.03125 328.35626 573.28125 328.71564Q573.53125 329.075 573.53125 329.6219Q573.53125 330.15314 573.21875 330.6219Q572.9219 331.075 572.34375 331.34064Q571.7656 331.59064 571.03125 331.59064Q569.8125 331.59064 569.1719 331.09064Q568.5469 330.575 568.375 329.59064ZM579.8594 329.16876L580.8906 329.3094Q580.71875 330.3719 580.0156 330.98126Q579.3125 331.59064 578.2969 331.59064Q577.0156 331.59064 576.2344 330.7625Q575.46875 329.91876 575.46875 328.35626Q575.46875 327.35626 575.7969 326.60626Q576.1406 325.84064 576.8125 325.46564Q577.5 325.09064 578.3125 325.09064Q579.3125 325.09064 579.9531 325.60626Q580.6094 326.10626 580.7969 327.0594L579.7656 327.21564Q579.625 326.59064 579.25 326.27814Q578.875 325.95 578.34375 325.95Q577.5469 325.95 577.0469 326.52814Q576.5469 327.09064 576.5469 328.325Q576.5469 329.59064 577.03125 330.15314Q577.5156 330.71564 578.28125 330.71564Q578.90625 330.71564 579.3125 330.34064Q579.7344 329.96564 579.8594 329.16876Z" fill-rule="nonzero"/><path fill="#7baaf7" d="M245.0 345.45C245.0 348.7637 242.3137 351.45 239.0 351.45C235.6863 351.45 233.0 348.7637 233.0 345.45C233.0 342.1363 235.6863 339.45 239.0 339.45C242.3137 339.45 245.0 342.1363 245.0 345.45Z" fill-rule="nonzero"/><path fill="#1a1a1a" d="M253.54688 346.6844L254.60938 346.59064Q254.6875 347.2469 254.96875 347.65314Q255.25 348.0594 255.82812 348.325Q256.42188 348.575 257.15625 348.575Q257.79688 348.575 258.29688 348.3875Q258.79688 348.1844 259.03125 347.85626Q259.28125 347.5125 259.28125 347.1219Q259.28125 346.71564 259.04688 346.41876Q258.8125 346.10626 258.28125 345.90314Q257.92188 345.7625 256.73438 345.48126Q255.5625 345.2 255.09375 344.95Q254.46875 344.6219 254.17188 344.15314Q253.875 343.66876 253.875 343.075Q253.875 342.4344 254.23438 341.8719Q254.60938 341.29376 255.3125 341.0125Q256.03125 340.71564 256.89062 340.71564Q257.84375 340.71564 258.57812 341.02814Q259.3125 341.325 259.70312 341.9344Q260.09375 342.52814 260.125 343.27814L259.03125 343.35626Q258.9375 342.54376 258.42188 342.1375Q257.92188 341.71564 256.9375 341.71564Q255.90625 341.71564 255.4375 342.09064Q254.96875 342.46564 254.96875 342.9969Q254.96875 343.46564 255.29688 343.7625Q255.625 344.0594 257.0 344.3719Q258.39062 344.6844 258.90625 344.91876Q259.65625 345.27814 260.01562 345.8094Q260.375 346.325 260.375 347.02814Q260.375 347.71564 259.98438 348.325Q259.59375 348.91876 258.85938 349.2625Q258.125 349.59064 257.20312 349.59064Q256.03125 349.59064 255.23438 349.2625Q254.45312 348.91876 254.0 348.23126Q253.5625 347.54376 253.54688 346.6844ZM265.85938 348.6844Q265.26562 349.1844 264.71875 349.3875Q264.1875 349.59064 263.5625 349.59064Q262.53125 349.59064 261.98438 349.09064Q261.4375 348.59064 261.4375 347.8094Q261.4375 347.35626 261.64062 346.98126Q261.84375 346.59064 262.1875 346.3719Q262.53125 346.1375 262.95312 346.02814Q263.25 345.9344 263.89062 345.85626Q265.15625 345.71564 265.76562 345.4969Q265.76562 345.27814 265.76562 345.23126Q265.76562 344.575 265.46875 344.3094Q265.0625 343.96564 264.26562 343.96564Q263.53125 343.96564 263.17188 344.23126Q262.8125 344.48126 262.64062 345.1375L261.60938 344.9969Q261.75 344.34064 262.07812 343.9344Q262.40625 343.52814 263.01562 343.3094Q263.625 343.09064 264.42188 343.09064Q265.21875 343.09064 265.71875 343.27814Q266.21875 343.46564 266.45312 343.7469Q266.6875 344.02814 266.78125 344.46564Q266.82812 344.73126 266.82812 345.4344L266.82812 346.84064Q266.82812 348.3094 266.89062 348.7Q266.96875 349.09064 267.17188 349.45L266.0625 349.45Q265.90625 349.1219 265.85938 348.6844ZM265.76562 346.325Q265.1875 346.5594 264.04688 346.73126Q263.39062 346.825 263.125 346.95Q262.85938 347.0594 262.70312 347.27814Q262.5625 347.4969 262.5625 347.77814Q262.5625 348.2 262.875 348.48126Q263.20312 348.7625 263.8125 348.7625Q264.42188 348.7625 264.89062 348.4969Q265.375 348.23126 265.59375 347.7625Q265.76562 347.40314 265.76562 346.71564L265.76562 346.325ZM270.51562 349.45L268.15625 343.23126L269.26562 343.23126L270.60938 346.95Q270.8125 347.5594 271.0 348.2Q271.14062 347.71564 271.39062 347.02814L272.78125 343.23126L273.85938 343.23126L271.5 349.45L270.51562 349.45ZM273.79688 342.075L273.79688 340.85626L274.85938 340.85626L274.85938 342.075L273.79688 342.075ZM273.79688 349.45L273.79688 343.23126L274.85938 343.23126L274.85938 349.45L273.79688 349.45ZM276.79688 349.45L276.79688 343.23126L277.73438 343.23126L277.73438 344.10626Q278.42188 343.09064 279.71875 343.09064Q280.28125 343.09064 280.75 343.29376Q281.23438 343.4969 281.46875 343.825Q281.70312 344.15314 281.79688 344.59064Q281.84375 344.8875 281.84375 345.6219L281.84375 349.45L280.79688 349.45L280.79688 345.66876Q280.79688 345.0125 280.67188 344.7Q280.54688 344.3875 280.23438 344.2Q279.92188 343.9969 279.5 343.9969Q278.82812 343.9969 278.32812 344.4344Q277.84375 344.85626 277.84375 346.04376L277.84375 349.45L276.79688 349.45ZM283.59375 349.96564L284.625 350.1219Q284.6875 350.59064 284.98438 350.8094Q285.375 351.10626 286.04688 351.10626Q286.78125 351.10626 287.17188 350.8094Q287.57812 350.5125 287.71875 349.9969Q287.8125 349.66876 287.79688 348.6375Q287.10938 349.45 286.07812 349.45Q284.79688 349.45 284.09375 348.52814Q283.39062 347.59064 283.39062 346.3094Q283.39062 345.41876 283.70312 344.66876Q284.03125 343.90314 284.64062 343.4969Q285.25 343.09064 286.07812 343.09064Q287.1875 343.09064 287.90625 343.98126L287.90625 343.23126L288.875 343.23126L288.875 348.60626Q288.875 350.0594 288.57812 350.66876Q288.28125 351.27814 287.64062 351.6219Q287.0 351.98126 286.0625 351.98126Q284.95312 351.98126 284.26562 351.48126Q283.57812 350.98126 283.59375 349.96564ZM284.46875 346.23126Q284.46875 347.45 284.95312 348.0125Q285.4375 348.575 286.17188 348.575Q286.90625 348.575 287.39062 348.0125Q287.89062 347.45 287.89062 346.2625Q287.89062 345.1219 287.375 344.54376Q286.875 343.96564 286.15625 343.96564Q285.45312 343.96564 284.95312 344.54376Q284.46875 345.10626 284.46875 346.23126ZM290.375 347.59064L291.40625 347.4344Q291.5 348.0594 291.89062 348.3875Q292.29688 348.71564 293.03125 348.71564Q293.75 348.71564 294.09375 348.4344Q294.45312 348.1375 294.45312 347.73126Q294.45312 347.3719 294.14062 347.16876Q293.92188 347.02814 293.0625 346.8094Q291.90625 346.5125 291.45312 346.3094Q291.01562 346.09064 290.78125 345.71564Q290.54688 345.34064 290.54688 344.8719Q290.54688 344.46564 290.73438 344.10626Q290.92188 343.7469 291.25 343.5125Q291.5 343.34064 291.92188 343.21564Q292.34375 343.09064 292.84375 343.09064Q293.5625 343.09064 294.10938 343.3094Q294.67188 343.5125 294.9375 343.8719Q295.20312 344.23126 295.29688 344.825L294.26562 344.96564Q294.20312 344.4969 293.85938 344.23126Q293.53125 343.95 292.90625 343.95Q292.1875 343.95 291.875 344.2Q291.5625 344.4344 291.5625 344.7625Q291.5625 344.96564 291.6875 345.1219Q291.82812 345.29376 292.09375 345.40314Q292.25 345.46564 293.03125 345.66876Q294.15625 345.98126 294.59375 346.16876Q295.03125 346.35626 295.28125 346.71564Q295.53125 347.075 295.53125 347.6219Q295.53125 348.15314 295.21875 348.6219Q294.92188 349.075 294.34375 349.34064Q293.76562 349.59064 293.03125 349.59064Q291.8125 349.59064 291.17188 349.09064Q290.54688 348.575 290.375 347.59064ZM297.0 349.59064L299.48438 340.71564L300.32812 340.71564L297.84375 349.59064L297.0 349.59064ZM303.92188 349.45L303.92188 340.85626L306.89062 340.85626Q307.89062 340.85626 308.42188 340.98126Q309.15625 341.15314 309.67188 341.59064Q310.35938 342.16876 310.6875 343.075Q311.03125 343.96564 311.03125 345.10626Q311.03125 346.09064 310.79688 346.84064Q310.57812 347.59064 310.21875 348.09064Q309.85938 348.59064 309.42188 348.8719Q309.0 349.15314 308.40625 349.3094Q307.8125 349.45 307.03125 349.45L303.92188 349.45ZM305.0625 348.4344L306.89062 348.4344Q307.75 348.4344 308.23438 348.27814Q308.71875 348.1219 309.0 347.825Q309.40625 347.4344 309.625 346.7469Q309.85938 346.0594 309.85938 345.09064Q309.85938 343.7469 309.40625 343.02814Q308.96875 342.29376 308.34375 342.04376Q307.875 341.8719 306.875 341.8719L305.0625 341.8719L305.0625 348.4344ZM312.79688 342.075L312.79688 340.85626L313.85938 340.85626L313.85938 342.075L312.79688 342.075ZM312.79688 349.45L312.79688 343.23126L313.85938 343.23126L313.85938 349.45L312.79688 349.45ZM315.375 347.59064L316.40625 347.4344Q316.5 348.0594 316.89062 348.3875Q317.29688 348.71564 318.03125 348.71564Q318.75 348.71564 319.09375 348.4344Q319.45312 348.1375 319.45312 347.73126Q319.45312 347.3719 319.14062 347.16876Q318.92188 347.02814 318.0625 346.8094Q316.90625 346.5125 316.45312 346.3094Q316.01562 346.09064 315.78125 345.71564Q315.54688 345.34064 315.54688 344.8719Q315.54688 344.46564 315.73438 344.10626Q315.92188 343.7469 316.25 343.5125Q316.5 343.34064 316.92188 343.21564Q317.34375 343.09064 317.84375 343.09064Q318.5625 343.09064 319.10938 343.3094Q319.67188 343.5125 319.9375 343.8719Q320.20312 344.23126 320.29688 344.825L319.26562 344.96564Q319.20312 344.4969 318.85938 344.23126Q318.53125 343.95 317.90625 343.95Q317.1875 343.95 316.875 344.2Q316.5625 344.4344 316.5625 344.7625Q316.5625 344.96564 316.6875 345.1219Q316.82812 345.29376 317.09375 345.40314Q317.25 345.46564 318.03125 345.66876Q319.15625 345.98126 319.59375 346.16876Q320.03125 346.35626 320.28125 346.71564Q320.53125 347.075 320.53125 347.6219Q320.53125 348.15314 320.21875 348.6219Q319.92188 349.075 319.34375 349.34064Q318.76562 349.59064 318.03125 349.59064Q316.8125 349.59064 316.17188 349.09064Q315.54688 348.575 315.375 347.59064ZM322.79688 351.84064L322.79688 343.23126L323.75 343.23126L323.75 344.02814Q324.09375 343.5594 324.51562 343.325Q324.95312 343.09064 325.5625 343.09064Q326.35938 343.09064 326.96875 343.4969Q327.57812 343.90314 327.875 344.65314Q328.1875 345.40314 328.1875 346.29376Q328.1875 347.2469 327.84375 348.0125Q327.51562 348.77814 326.85938 349.1844Q326.20312 349.59064 325.48438 349.59064Q324.95312 349.59064 324.53125 349.3719Q324.10938 349.1375 323.84375 348.8094L323.84375 351.84064L322.79688 351.84064ZM323.75 346.3719Q323.75 347.575 324.23438 348.15314Q324.71875 348.71564 325.40625 348.71564Q326.10938 348.71564 326.60938 348.1219Q327.10938 347.52814 327.10938 346.27814Q327.10938 345.09064 326.625 344.5125Q326.14062 343.91876 325.45312 343.91876Q324.78125 343.91876 324.26562 344.54376Q323.75 345.16876 323.75 346.3719ZM329.40625 346.34064Q329.40625 344.60626 330.35938 343.77814Q331.15625 343.09064 332.3125 343.09064Q333.59375 343.09064 334.40625 343.9344Q335.23438 344.7625 335.23438 346.2469Q335.23438 347.45 334.875 348.1375Q334.51562 348.825 333.8125 349.21564Q333.125 349.59064 332.3125 349.59064Q331.01562 349.59064 330.20312 348.7625Q329.40625 347.91876 329.40625 346.34064ZM330.48438 346.34064Q330.48438 347.52814 331.0 348.1219Q331.53125 348.71564 332.3125 348.71564Q333.10938 348.71564 333.625 348.1219Q334.14062 347.52814 334.14062 346.3094Q334.14062 345.15314 333.60938 344.5594Q333.09375 343.96564 332.3125 343.96564Q331.53125 343.96564 331.0 344.5594Q330.48438 345.1375 330.48438 346.34064ZM336.375 347.59064L337.40625 347.4344Q337.5 348.0594 337.89062 348.3875Q338.29688 348.71564 339.03125 348.71564Q339.75 348.71564 340.09375 348.4344Q340.45312 348.1375 340.45312 347.73126Q340.45312 347.3719 340.14062 347.16876Q339.92188 347.02814 339.0625 346.8094Q337.90625 346.5125 337.45312 346.3094Q337.01562 346.09064 336.78125 345.71564Q336.54688 345.34064 336.54688 344.8719Q336.54688 344.46564 336.73438 344.10626Q336.92188 343.7469 337.25 343.5125Q337.5 343.34064 337.92188 343.21564Q338.34375 343.09064 338.84375 343.09064Q339.5625 343.09064 340.10938 343.3094Q340.67188 343.5125 340.9375 343.8719Q341.20312 344.23126 341.29688 344.825L340.26562 344.96564Q340.20312 344.4969 339.85938 344.23126Q339.53125 343.95 338.90625 343.95Q338.1875 343.95 337.875 344.2Q337.5625 344.4344 337.5625 344.7625Q337.5625 344.96564 337.6875 345.1219Q337.82812 345.29376 338.09375 345.40314Q338.25 345.46564 339.03125 345.66876Q340.15625 345.98126 340.59375 346.16876Q341.03125 346.35626 341.28125 346.71564Q341.53125 347.075 341.53125 347.6219Q341.53125 348.15314 341.21875 348.6219Q340.92188 349.075 340.34375 349.34064Q339.76562 349.59064 339.03125 349.59064Q337.8125 349.59064 337.17188 349.09064Q336.54688 348.575 336.375 347.59064ZM347.85938 348.6844Q347.26562 349.1844 346.71875 349.3875Q346.1875 349.59064 345.5625 349.59064Q344.53125 349.59064 343.98438 349.09064Q343.4375 348.59064 343.4375 347.8094Q343.4375 347.35626 343.64062 346.98126Q343.84375 346.59064 344.1875 346.3719Q344.53125 346.1375 344.95312 346.02814Q345.25 345.9344 345.89062 345.85626Q347.15625 345.71564 347.76562 345.4969Q347.76562 345.27814 347.76562 345.23126Q347.76562 344.575 347.46875 344.3094Q347.0625 343.96564 346.26562 343.96564Q345.53125 343.96564 345.17188 344.23126Q344.8125 344.48126 344.64062 345.1375L343.60938 344.9969Q343.75 344.34064 344.07812 343.9344Q344.40625 343.52814 345.01562 343.3094Q345.625 343.09064 346.42188 343.09064Q347.21875 343.09064 347.71875 343.27814Q348.21875 343.46564 348.45312 343.7469Q348.6875 344.02814 348.78125 344.46564Q348.82812 344.73126 348.82812 345.4344L348.82812 346.84064Q348.82812 348.3094 348.89062 348.7Q348.96875 349.09064 349.17188 349.45L348.0625 349.45Q347.90625 349.1219 347.85938 348.6844ZM347.76562 346.325Q347.1875 346.5594 346.04688 346.73126Q345.39062 346.825 345.125 346.95Q344.85938 347.0594 344.70312 347.27814Q344.5625 347.4969 344.5625 347.77814Q344.5625 348.2 344.875 348.48126Q345.20312 348.7625 345.8125 348.7625Q346.42188 348.7625 346.89062 348.4969Q347.375 348.23126 347.59375 347.7625Q347.76562 347.40314 347.76562 346.71564L347.76562 346.325ZM351.76562 349.45L350.78125 349.45L350.78125 340.85626L351.84375 340.85626L351.84375 343.91876Q352.51562 343.09064 353.54688 343.09064Q354.125 343.09064 354.625 343.325Q355.14062 343.54376 355.46875 343.96564Q355.8125 344.3875 356.0 344.98126Q356.1875 345.575 356.1875 346.2469Q356.1875 347.84064 355.39062 348.71564Q354.59375 349.59064 353.5 349.59064Q352.39062 349.59064 351.76562 348.66876L351.76562 349.45ZM351.75 346.29376Q351.75 347.40314 352.0625 347.90314Q352.5625 348.71564 353.40625 348.71564Q354.09375 348.71564 354.59375 348.1219Q355.10938 347.52814 355.10938 346.325Q355.10938 345.10626 354.625 344.52814Q354.14062 343.95 353.45312 343.95Q352.76562 343.95 352.25 344.5594Q351.75 345.15314 351.75 346.29376ZM357.76562 349.45L357.76562 340.85626L358.82812 340.85626L358.82812 349.45L357.76562 349.45ZM365.04688 347.45L366.14062 347.575Q365.89062 348.52814 365.1875 349.0594Q364.48438 349.59064 363.40625 349.59064Q362.04688 349.59064 361.23438 348.7469Q360.4375 347.90314 360.4375 346.3875Q360.4375 344.825 361.25 343.96564Q362.0625 343.09064 363.34375 343.09064Q364.59375 343.09064 365.375 343.9344Q366.17188 344.77814 366.17188 346.325Q366.17188 346.41876 366.17188 346.60626L361.53125 346.60626Q361.59375 347.6375 362.10938 348.1844Q362.625 348.71564 363.40625 348.71564Q363.98438 348.71564 364.39062 348.41876Q364.8125 348.10626 365.04688 347.45ZM361.59375 345.7469L365.0625 345.7469Q365.0 344.95 364.67188 344.5594Q364.15625 343.95 363.35938 343.95Q362.625 343.95 362.125 344.4344Q361.64062 344.91876 361.59375 345.7469Z" fill-rule="nonzero"/></svg>